<?xml version="1.0" standalone="no"?>
<!DOCTYPE svg PUBLIC "-//W3C//DTD SVG 1.1//EN" "http://www.w3.org/Graphics/SVG/1.1/DTD/svg11.dtd" >
<svg xmlns="http://www.w3.org/2000/svg">
<metadata></metadata>
<defs>
<font id="mikodacspcsregular" horiz-adv-x="1044" >
<font-face units-per-em="2048" ascent="1556" descent="-492" />
<missing-glyph horiz-adv-x="655" />
<glyph horiz-adv-x="2048" />
<glyph horiz-adv-x="2048" />
<glyph unicode="&#xd;" horiz-adv-x="737" />
<glyph unicode=" "  horiz-adv-x="655" />
<glyph unicode="&#x09;" horiz-adv-x="655" />
<glyph unicode="&#xa0;" horiz-adv-x="655" />
<glyph unicode="!" horiz-adv-x="450" d="M20 1065h410q0 -37 -20.5 -138t-41 -242t-20.5 -275h-246q0 134 -20.5 275t-41 242t-20.5 138zM82 10v266l10 11h266l11 -11v-266l-11 -10h-266z" />
<glyph unicode="&#x22;" horiz-adv-x="634" d="M41 737v410h246v-410h-246zM348 737v410h246v-410h-246z" />
<glyph unicode="#" horiz-adv-x="1064" d="M20 205l7 246h178v163h-150l6 246h144v205h246v-205h163v205h246v-205h184l-6 -246h-178v-163h152l-6 -246h-146v-205h-246v205h-163v-205h-246v205h-185zM451 451h163v163h-163v-163z" />
<glyph unicode="$" horiz-adv-x="1003" d="M31 246v143h327v-20q0 -31 37 -56.5t86 -25.5q123 0 123 61q0 19 -41 34t-102.5 25.5t-133 30.5t-133 45.5t-102.5 72.5t-41 110v92q0 120 72 182.5t246 77.5v67h286v-71q136 -20 216.5 -70t80.5 -125v-123h-327v21q0 29 -33 45t-80 16q-113 0 -113 -41q0 -19 42.5 -36 t106.5 -31t138 -38t138 -52.5t106.5 -78t42.5 -112.5v-82q0 -115 -74.5 -177.5t-243.5 -80.5v-69h-286v67q-151 16 -244.5 68t-93.5 131z" />
<glyph unicode="%" horiz-adv-x="1904" d="M31 676v205q0 112 78.5 158t269.5 46t269.5 -46t78.5 -158v-205q0 -112 -78.5 -158.5t-269.5 -46.5t-269.5 46.5t-78.5 158.5zM317 758q0 -82 62 -82q61 0 61 82v41q0 82 -61 82q-62 0 -62 -82v-41zM492 162l737 901l184 -162l-737 -901zM1178 184v205q0 112 78.5 158.5 t269.5 46.5t269.5 -46.5t78.5 -158.5v-205q0 -112 -78.5 -158t-269.5 -46t-269.5 46t-78.5 158zM1464 266q0 -82 62 -82q61 0 61 82v41q0 82 -61 82q-62 0 -62 -82v-41z" />
<glyph unicode="&#x26;" horiz-adv-x="1208" d="M31 266v21q0 217 229 266q-79 30 -113 85t-34 140v62q0 119 124.5 182t346.5 63q202 0 316 -58t114 -167v-61h-348q0 41 -82 41q-40 0 -61 -24t-21 -68q0 -93 61 -93h62l41 82h348v-82h153v-245h-153v-82q0 -50 26.5 -76.5t75.5 -26.5q31 0 62 17v-244q-64 -18 -144 -18 q-188 0 -297 59q-78 -59 -235 -59q-249 0 -360 72.5t-111 213.5zM440 317q0 -44 21 -68t61 -24q31 0 56.5 29.5t25.5 73.5v82h-102q-62 0 -62 -93z" />
<glyph unicode="'" horiz-adv-x="327" d="M41 737v410h246v-410h-246z" />
<glyph unicode="(" horiz-adv-x="665" d="M20 530q0 467 371 910l250 -211q-98 -116 -154.5 -304.5t-56.5 -392.5t56.5 -392t154.5 -304l-252 -211q-369 444 -369 905z" />
<glyph unicode=")" horiz-adv-x="665" d="M25 -164q98 116 154.5 304t56.5 392t-56.5 392.5t-154.5 304.5l249 211q371 -443 371 -910q0 -461 -369 -905z" />
<glyph unicode="*" horiz-adv-x="778" d="M23 1006l71 190l203 -84l-10 219h205l-11 -219l203 84l72 -190l-219 -70l141 -174l-164 -123l-125 186l-125 -186l-164 123l142 174z" />
<glyph unicode="+" horiz-adv-x="983" d="M41 389v287h307v307h287v-307h307v-287h-307v-307h-287v307h-307z" />
<glyph unicode="," horiz-adv-x="389" d="M51 10v266l10 11h267l10 -11v-276q0 -168 -143 -311l-86 86q106 106 106 225h-154z" />
<glyph unicode="-" horiz-adv-x="737" d="M31 451l20 245h656l-21 -245h-655z" />
<glyph unicode="." horiz-adv-x="389" d="M51 10v266l10 11h267l10 -11v-266l-10 -10h-267z" />
<glyph unicode="/" horiz-adv-x="1024" d="M14 -14l748 1233l246 -148l-748 -1233z" />
<glyph unicode="0" horiz-adv-x="1003" d="M31 225v615q0 135 106.5 190t364.5 55t364.5 -55t106.5 -190v-615q0 -135 -106.5 -190t-364.5 -55t-364.5 55t-106.5 190zM440 328q0 -46 16.5 -74.5t45.5 -28.5t45 28t16 75v409q0 47 -16 75t-45 28t-45.5 -28.5t-16.5 -74.5v-409z" />
<glyph unicode="1" horiz-adv-x="573" d="M18 655l2 328l267 82h245v-1065h-409v655h-105z" />
<glyph unicode="2" horiz-adv-x="993" d="M31 0v246q62 55 147 122.5t140 112t108.5 92.5t79.5 88.5t26 75.5q0 103 -61 103q-29 0 -45 -28t-16 -75v-61h-369v184q0 110 110 167.5t320 57.5q258 0 364.5 -55t106.5 -190q0 -45 -11.5 -89t-28.5 -81t-51 -81t-61.5 -75.5t-80 -80t-87.5 -79t-100 -86.5 q-17 -15 -26 -22h137l182 164h148v-410h-932z" />
<glyph unicode="3" horiz-adv-x="962" d="M31 205v123h368q0 -103 62 -103q61 0 61 103q0 102 -61 102h-287v205h287q61 0 61 102q0 103 -61 103q-62 0 -62 -103h-348v123q0 110 105 167.5t305 57.5q220 0 335 -62.5t115 -182.5v-62q0 -91 -40 -149t-132 -86q101 -29 147 -87t46 -149v-82q0 -135 -106.5 -190 t-364.5 -55q-210 0 -320 57.5t-110 167.5z" />
<glyph unicode="4" horiz-adv-x="1064" d="M20 164v123q10 12 26.5 34.5t59 99t75 160.5t59 216t26.5 268h430q0 -78 -24.5 -164t-73 -180t-86 -155.5t-98.5 -155.5h139v26q108 157 180 301h230v-327h81v-246h-81v-164h-410v164h-533z" />
<glyph unicode="5" horiz-adv-x="962" d="M31 205v123h368q0 -46 16.5 -74.5t45.5 -28.5q61 0 61 111q0 115 -65 115q-20 0 -42 -12t-34 -29h-350v655h880v-287h-188l-21 41h-303v-196q115 92 246 92q127 0 207 -69t80 -177v-244q0 -135 -106.5 -190t-364.5 -55q-210 0 -320 57.5t-110 167.5z" />
<glyph unicode="6" horiz-adv-x="1003" d="M31 225v615q0 135 106.5 190t364.5 55q235 0 332.5 -51t97.5 -174v-92h-328q0 72 -82 72t-82 -72v-164q115 92 246 92q127 0 207 -68.5t80 -176.5v-226q0 -135 -106.5 -190t-364.5 -55t-364.5 55t-106.5 190zM440 317q0 -92 62 -92q61 0 61 92q0 95 -65 95q-25 0 -58 -23 v-72z" />
<glyph unicode="7" horiz-adv-x="952" d="M20 655v410h922v-123q-7 -8 -18.5 -22t-46 -63t-65.5 -103t-68.5 -139t-65 -174t-46 -205.5t-18.5 -235.5h-450q0 49 9.5 102.5t22.5 98.5t40 104.5t46.5 99t58.5 105.5t60.5 100t68 106t65.5 103h-144l-94 -164h-277z" />
<glyph unicode="8" horiz-adv-x="1003" d="M31 225v103q0 91 45.5 148.5t146.5 86.5q-92 28 -132 86.5t-40 149.5v41q0 120 115.5 182.5t335.5 62.5t335 -62.5t115 -182.5v-41q0 -91 -40 -149.5t-132 -86.5q101 -29 147 -86.5t46 -148.5v-103q0 -135 -106.5 -190t-364.5 -55t-364.5 55t-106.5 190zM440 328 q0 -103 62 -103q61 0 61 103q0 102 -61 102q-62 0 -62 -102zM440 758q0 -82 62 -82q61 0 61 82t-61 82q-62 0 -62 -82z" />
<glyph unicode="9" horiz-adv-x="1003" d="M31 614v226q0 135 106.5 190t364.5 55t364.5 -55t106.5 -190v-615q0 -135 -106.5 -190t-364.5 -55q-235 0 -332.5 51t-97.5 174v92h327q0 -72 82 -72t82 72v164q-115 -92 -246 -92q-127 0 -206.5 68.5t-79.5 176.5zM440 748q0 -95 66 -95q24 0 57 23v72q0 92 -61 92 q-62 0 -62 -92z" />
<glyph unicode=":" horiz-adv-x="389" d="M51 10v266l10 11h267l10 -11v-266l-10 -10h-267zM51 788v267l10 10h267l10 -10v-267l-10 -10h-267z" />
<glyph unicode=";" horiz-adv-x="389" d="M51 10v266l10 11h267l10 -11v-276q0 -168 -143 -311l-86 86q106 106 106 225h-154zM51 788v267l10 10h267l10 -10v-267l-10 -10h-267z" />
<glyph unicode="&#x3c;" horiz-adv-x="962" d="M31 489v93l755 483l154 -242l-455 -291l457 -303l-160 -239z" />
<glyph unicode="=" horiz-adv-x="1064" d="M41 143v287h983v-287h-983zM41 635v287h983v-287h-983z" />
<glyph unicode="&#x3e;" horiz-adv-x="962" d="M20 229l457 303l-454 291l153 242l756 -483v-93l-752 -499z" />
<glyph unicode="?" horiz-adv-x="972" d="M20 758v102q0 123 100 174t341 51q264 0 372.5 -51t108.5 -174v-20q0 -54 -22 -97.5t-57 -71.5t-77.5 -50.5t-85 -40.5t-77.5 -35.5t-57.5 -41t-22.5 -52.5v-41h-246v59q0 62 17.5 108.5t43.5 70.5t56.5 43.5t56.5 31t43.5 31t17.5 45.5q0 41 -71 41q-40 0 -56 -14 t-16 -48v-20h-369zM276 10v266l11 11h266l10 -11v-266l-10 -10h-266z" />
<glyph unicode="@" horiz-adv-x="1853" d="M51 -61v1187q0 71 34.5 115t132.5 75t270 43.5t450 12.5q275 0 444.5 -12.5t265.5 -43.5t130 -75t34 -115v-798q0 -73 -14.5 -115.5t-60.5 -74.5t-130.5 -44t-224.5 -12h-202l-56 104q-163 -125 -366 -125q-125 0 -195.5 68t-70.5 178v451q0 112 69.5 179t196.5 67 q112 0 199.5 -32t168.5 -95l74 106h162v-696h20q56 0 79.5 23.5t23.5 78.5v635q0 39 -47.5 60.5t-165 31.5t-334.5 10q-219 0 -340.5 -10.5t-170 -32t-48.5 -59.5v-983q0 -38 40 -59.5t142 -32t289 -10.5h666v-246h-666q-169 0 -292.5 5.5t-213 18.5t-146 31t-89.5 47.5 t-45.5 63t-12.5 80.5zM860 430q0 -46 18.5 -75t47.5 -29q26 0 57 22v369q-31 22 -57 22q-29 0 -47.5 -29t-18.5 -75v-205z" />
<glyph unicode="A" d="M31 0v369q0 164 61.5 440.5t122.5 470.5l61 195h492q10 -30 26.5 -82t59 -199t75 -278.5t59 -287.5t26.5 -259v-205q0 -96 10 -164h-348q-43 0 -57.5 57.5t-14.5 208.5v21h-164v-287h-409zM440 573h164v86q0 83 -28.5 322t-53.5 289q-24 -50 -53 -290t-29 -321v-86z" />
<glyph unicode="B" horiz-adv-x="1054" d="M41 0v1475h512q220 0 335.5 -63t115.5 -183v-205q0 -91 -40.5 -149.5t-132.5 -86.5q101 -29 147 -86.5t46 -148.5v-307q0 -135 -106.5 -190.5t-364.5 -55.5h-512zM451 246h102q29 0 45 27.5t16 74.5v184q0 47 -16 75t-45 28h-102v-389zM451 922h102q29 0 45 27.5t16 74.5 v102q0 47 -16 75t-45 28h-102v-307z" />
<glyph unicode="C" horiz-adv-x="1003" d="M31 225v1024q0 135 111 190.5t380 55.5q247 0 349 -51t102 -174v-328h-369v205q0 102 -82 102t-82 -102v-819q0 -50 21 -76.5t61 -26.5t61 26.5t21 76.5v204h369v-327q0 -123 -102 -174t-349 -51q-269 0 -380 55t-111 190z" />
<glyph unicode="D" horiz-adv-x="1054" d="M41 0v1475h491q269 0 380.5 -74t111.5 -254v-819q0 -180 -111.5 -254t-380.5 -74h-491zM451 246h81q82 0 82 102v778q0 50 -21 76.5t-61 26.5h-81v-983z" />
<glyph unicode="E" horiz-adv-x="839" d="M41 0v1475h778v-287h-368v-307h245v-287h-245v-307h368v-287h-778z" />
<glyph unicode="F" horiz-adv-x="839" d="M41 0v1475h778v-287h-368v-307h327v-287h-327v-594h-410z" />
<glyph unicode="G" d="M31 225v1024q0 135 111 190.5t380 55.5q240 0 366 -57.5t126 -167.5v-246h-410v123q0 102 -82 102t-82 -102v-758q0 -46 18.5 -75t47.5 -29q44 0 98 57v231h-72v246h482v-655q0 -96 10 -164h-203l-88 127q-169 -147 -416 -147q-127 0 -206.5 68.5t-79.5 176.5z" />
<glyph unicode="H" horiz-adv-x="1064" d="M41 0v1475h410v-594h163v594h410v-1311q0 -96 10 -164h-348q-43 0 -57.5 57.5t-14.5 208.5v328h-163v-594h-410z" />
<glyph unicode="I" horiz-adv-x="491" d="M41 0v1475h410v-1475h-410z" />
<glyph unicode="J" horiz-adv-x="634" d="M31 -2v244q31 -17 61 -17q50 0 76.5 26.5t26.5 76.5v860h-164v287h573v-1209q0 -139 -110.5 -212.5t-319.5 -73.5q-78 0 -143 18z" />
<glyph unicode="K" horiz-adv-x="1054" d="M41 0v1475h410v-533h77q32 0 59 28.5t27 71.5v433h390v-431q0 -68 -55 -129t-140 -98q91 -37 153 -104t62 -140v-409q0 -96 10 -164h-348q-43 0 -57.5 57.5t-14.5 208.5v287q0 46 -18 74t-47 28h-98v-655h-410z" />
<glyph unicode="L" horiz-adv-x="839" d="M41 0v1475h410v-1188h368v-287h-778z" />
<glyph unicode="M" horiz-adv-x="1638" d="M41 0v1475h369q116 0 220.5 -52t188.5 -147q84 94 189 146.5t221 52.5h368v-1311q0 -89 11 -164h-348q-43 0 -57.5 57.5t-14.5 208.5v963q-80 0 -122 -84t-42 -244v-901h-410v901q0 160 -42 244t-121 84v-1229h-410z" />
<glyph unicode="N" horiz-adv-x="1064" d="M41 0v1475h41q158 0 304.5 -70.5t268.5 -200.5v271h369v-1311q0 -96 10 -164h-420v471q0 253 -47.5 423.5t-115.5 170.5v-1065h-410z" />
<glyph unicode="O" d="M31 225v1024q0 135 111 190.5t380 55.5t380.5 -55.5t111.5 -190.5v-1024q0 -135 -111.5 -190t-380.5 -55t-380 55t-111 190zM440 328q0 -50 21 -76.5t61 -26.5t61 26.5t21 76.5v819q0 102 -82 102t-82 -102v-819z" />
<glyph unicode="P" horiz-adv-x="1054" d="M41 0v1475h491q269 0 380.5 -55.5t111.5 -190.5v-533q0 -135 -111.5 -190t-380.5 -55h-81v-451h-410zM451 696h81q40 0 61 26.5t21 76.5v327q0 50 -21 76.5t-61 26.5h-81v-533z" />
<glyph unicode="Q" d="M31 225v1024q0 120 126 183t365 63t365.5 -63t126.5 -183v-1024q0 -103 -94.5 -164.5t-274.5 -76.5v-25q0 -49 26.5 -75.5t76.5 -26.5h112v-287h-184q-135 0 -206 94.5t-71 274.5v45q-180 15 -274 76.5t-94 164.5zM440 328q0 -50 21 -76.5t61 -26.5t61 26.5t21 76.5v819 q0 102 -82 102t-82 -102v-819z" />
<glyph unicode="R" horiz-adv-x="1054" d="M41 0v1475h471q269 0 380.5 -55.5t111.5 -190.5v-287q0 -99 -57.5 -153t-188.5 -76q108 -31 187 -105t79 -157v-287q0 -96 10 -164h-348q-43 0 -57.5 57.5t-14.5 208.5v205q0 46 -18 74t-47 28h-98v-573h-410zM451 819h81q40 0 61 26.5t21 76.5v204q0 50 -21 76.5 t-61 26.5h-81v-410z" />
<glyph unicode="S" horiz-adv-x="1024" d="M31 184v246h327v-123q0 -40 34.5 -61t99.5 -21q64 0 98.5 26.5t34.5 76.5q0 45 -31.5 93t-82.5 91t-112 88t-122 91t-112 92.5t-82.5 101t-31.5 108.5v256q0 135 104.5 190.5t356.5 55.5t356.5 -46.5t104.5 -158.5v-225h-328v123q0 61 -123 61t-123 -82q0 -45 33 -92.5 t85 -89.5t115.5 -86t127 -89t115.5 -90.5t85 -99.5t33 -108v-287q0 -135 -108.5 -190t-372.5 -55q-235 0 -358 52t-123 152z" />
<glyph unicode="T" horiz-adv-x="1024" d="M20 1188v287h984v-287h-287v-1188h-410v1188h-287z" />
<glyph unicode="U" d="M31 225v1250h409v-1147q0 -50 21 -76.5t61 -26.5t61 26.5t21 76.5v1147h410v-1250q0 -135 -111.5 -190t-380.5 -55t-380 55t-111 190z" />
<glyph unicode="V" d="M31 942v533h409v-660q0 -126 28 -320t54 -249q27 55 54.5 248t27.5 321v660h410v-533q0 -103 -29.5 -238t-72 -254t-84.5 -223.5t-72 -165.5l-29 -61h-410q-12 23 -31 64t-68.5 159.5t-87 229t-68.5 248.5t-31 241z" />
<glyph unicode="W" horiz-adv-x="1617" d="M31 922v553h409v-680q0 -91 19.5 -295.5t42.5 -253.5q31 62 66.5 253t35.5 337v598h410v-598q0 -145 36 -335.5t66 -254.5q24 49 43 252t19 297v680h409v-553q0 -92 -29.5 -220.5t-71.5 -247t-84.5 -223.5t-71.5 -168l-30 -63h-286q-139 178 -205 315q-28 -59 -79 -138 t-88 -128l-38 -49h-287q-12 24 -31 66t-68.5 162t-87 229.5t-68.5 241t-31 223.5z" />
<glyph unicode="X" d="M31 0v328q0 206 215 430q-195 241 -195 450v267h389v-291q0 -110 82 -283q32 64 57 144t25 139v291h389v-267q0 -211 -221 -450q242 -224 242 -430q0 -260 10 -328h-348q-14 0 -24.5 13.5t-17 37.5t-11.5 52t-7.5 63.5t-4.5 65t-3.5 63t-3.5 51.5q-5 58 -28.5 146.5 t-53.5 142.5q-30 -63 -56 -153t-26 -150v-332h-409z" />
<glyph unicode="Y" d="M31 1147v328h409v-455q0 -61 27 -162.5t55 -161.5q29 58 55.5 160t26.5 164v455h410v-328q0 -80 -29.5 -173t-72 -168.5t-84.5 -139t-72 -98.5l-29 -36v-532h-410v532q-12 13 -31 37t-68.5 96t-87 142t-68.5 165t-31 175z" />
<glyph unicode="Z" horiz-adv-x="993" d="M20 0v63l422 1166h-151l-78 -205h-172v451h922v-62l-431 -1167h162l78 205h191v-451h-943z" />
<glyph unicode="[" horiz-adv-x="614" d="M41 -369v1803h532v-246h-122v-1311h122v-246h-532z" />
<glyph unicode="\" horiz-adv-x="1024" d="M14 1071l246 148l748 -1233l-246 -148z" />
<glyph unicode="]" horiz-adv-x="614" d="M41 -123h123v1311h-123v246h532v-1803h-532v246z" />
<glyph unicode="^" horiz-adv-x="1064" d="M41 883l438 673h92l453 -669l-240 -160l-256 375l-245 -373z" />
<glyph unicode="_" horiz-adv-x="1064" d="M41 -246h983v-246h-983v246z" />
<glyph unicode="`" horiz-adv-x="491" d="M20 1395l158 182l293 -311l-117 -113z" />
<glyph unicode="a" d="M31 0v205q0 103 25 229.5t61 233.5t72.5 199t61.5 145l25 53h492q10 -20 26.5 -55.5t59 -140t75 -204t59 -228.5t26.5 -232v-41q0 -96 10 -164h-358q-37 0 -49.5 38.5t-12.5 104.5v82h-164v-225h-409zM440 430h164v66q0 65 -27.5 187t-54.5 177q-27 -56 -54.5 -178 t-27.5 -186v-66z" />
<glyph unicode="b" horiz-adv-x="1054" d="M41 0v1065h512q247 0 349 -58t102 -198v-41q0 -90 -39.5 -143t-133.5 -82q102 -29 147.5 -82.5t45.5 -143.5v-61q0 -140 -106.5 -198t-364.5 -58h-512zM451 246h102q61 0 61 92t-61 92h-102v-184zM451 635h102q61 0 61 92t-61 92h-102v-184z" />
<glyph unicode="c" horiz-adv-x="1003" d="M31 225v615q0 135 111 190t380 55q247 0 349 -51t102 -174v-246h-369v123q0 50 -21 76.5t-61 26.5t-61 -26.5t-21 -76.5v-409q0 -50 21 -76.5t61 -26.5t61 26.5t21 76.5v123h369v-246q0 -123 -102 -174t-349 -51q-269 0 -380 55t-111 190z" />
<glyph unicode="d" horiz-adv-x="1054" d="M41 0v1065h491q269 0 380.5 -74t111.5 -254v-409q0 -180 -111.5 -254t-380.5 -74h-491zM451 246h81q82 0 82 102v369q0 102 -82 102h-81v-573z" />
<glyph unicode="e" horiz-adv-x="819" d="M41 0v1065h758v-287h-348v-123h225v-245h-225v-123h348v-287h-758z" />
<glyph unicode="f" horiz-adv-x="819" d="M41 0v1065h758v-287h-348v-205h307v-245h-307v-328h-410z" />
<glyph unicode="g" d="M31 225v615q0 135 111 190t380 55q240 0 366 -57.5t126 -167.5v-164h-410v41q0 50 -21 76.5t-61 26.5t-61 -26.5t-21 -76.5v-348q0 -46 18.5 -75t47.5 -29q44 0 98 57v27h-72v204h482v-409q0 -96 10 -164h-203l-88 127q-169 -147 -416 -147q-127 0 -206.5 68.5 t-79.5 176.5z" />
<glyph unicode="h" horiz-adv-x="1064" d="M41 0v1065h410v-410h163v410h410v-901q0 -96 10 -164h-348q-43 0 -57.5 57.5t-14.5 208.5v144h-163v-410h-410z" />
<glyph unicode="i" horiz-adv-x="491" d="M41 0v1065h410v-1065h-410z" />
<glyph unicode="j" horiz-adv-x="634" d="M31 -2v244q31 -17 61 -17q50 0 76.5 26.5t26.5 76.5v491h-164v246h573v-799q0 -139 -110.5 -212.5t-319.5 -73.5q-78 0 -143 18z" />
<glyph unicode="k" horiz-adv-x="1054" d="M41 0v1065h410v-410h77q32 0 59 29t27 72v309h390v-266q0 -68 -55 -129.5t-140 -98.5q91 -37 153 -104t62 -139v-164q0 -96 10 -164h-348q-43 0 -57.5 57.5t-14.5 208.5v82q0 46 -18 74.5t-47 28.5h-98v-451h-410z" />
<glyph unicode="l" horiz-adv-x="798" d="M41 0v1065h410v-778h327v-287h-737z" />
<glyph unicode="m" horiz-adv-x="1638" d="M41 0v1065h369q116 0 220.5 -52t188.5 -147q84 94 189 146.5t221 52.5h368v-901q0 -89 11 -164h-348q-43 0 -57.5 57.5t-14.5 208.5v553q-80 0 -122 -84t-42 -243v-492h-410v492q0 160 -41.5 243.5t-121.5 83.5v-819h-410z" />
<glyph unicode="n" horiz-adv-x="1064" d="M41 0v1065h41q159 0 305 -70t268 -200v270h369v-901q0 -96 10 -164h-420v61q0 253 -47.5 423.5t-115.5 170.5v-655h-410z" />
<glyph unicode="o" d="M31 225v615q0 135 111 190t380 55t380.5 -55t111.5 -190v-615q0 -135 -111.5 -190t-380.5 -55t-380 55t-111 190zM440 328q0 -50 21 -76.5t61 -26.5t61 26.5t21 76.5v409q0 50 -21 76.5t-61 26.5t-61 -26.5t-21 -76.5v-409z" />
<glyph unicode="p" horiz-adv-x="1054" d="M41 0v1065h491q269 0 380.5 -55.5t111.5 -190.5v-327q0 -135 -111.5 -190.5t-380.5 -55.5h-81v-246h-410zM451 492h81q82 0 82 102v123q0 102 -82 102h-81v-327z" />
<glyph unicode="q" d="M31 225v615q0 120 125.5 182.5t365.5 62.5t366 -62.5t126 -182.5v-615q0 -103 -94.5 -164.5t-274.5 -76.5v-25q0 -49 26.5 -75.5t76.5 -26.5h112v-287h-184q-135 0 -206 94.5t-71 274.5v45q-180 15 -274 76.5t-94 164.5zM440 328q0 -50 21 -76.5t61 -26.5t61 26.5 t21 76.5v409q0 50 -21 76.5t-61 26.5t-61 -26.5t-21 -76.5v-409z" />
<glyph unicode="r" horiz-adv-x="1054" d="M41 0v1065h471q269 0 380.5 -55.5t111.5 -190.5v-82q0 -99 -57.5 -153t-188.5 -76q108 -31 187 -105t79 -157v-82q0 -96 10 -164h-348q-43 0 -57.5 55t-14.5 191v41q0 46 -18 74t-47 28h-98v-389h-410zM451 594h81q82 0 82 113q0 112 -82 112h-81v-225z" />
<glyph unicode="s" horiz-adv-x="1003" d="M31 184v164h327v-41q0 -31 37 -56.5t86 -25.5q67 0 95 19t28 63q0 33 -41 55t-102.5 32t-133 26t-133 36t-102.5 63.5t-41 105.5v215q0 92 41.5 144t139 76.5t270.5 24.5q129 0 229.5 -23t160.5 -69.5t60 -111.5v-144h-327v41q0 29 -33 45.5t-80 16.5q-62 0 -87.5 -14 t-25.5 -48q0 -29 31.5 -48t82.5 -29.5t112 -19.5t122 -23t112 -34.5t82.5 -59.5t31.5 -93v-246q0 -135 -106.5 -190t-364.5 -55q-130 0 -235 22.5t-170.5 70t-65.5 111.5z" />
<glyph unicode="t" horiz-adv-x="983" d="M20 778v287h943v-287h-267v-778h-409v778h-267z" />
<glyph unicode="u" d="M31 225v840h409v-737q0 -50 21 -76.5t61 -26.5t61 26.5t21 76.5v737h410v-840q0 -135 -111.5 -190t-380.5 -55t-380 55t-111 190z" />
<glyph unicode="v" d="M31 737v328h409v-373q0 -69 28.5 -231t53.5 -215q26 52 54 213.5t28 232.5v373h410v-328q0 -80 -29.5 -185.5t-72 -199t-84.5 -175t-72 -129.5l-29 -48h-410q-12 18 -31 50t-68.5 125.5t-87 179.5t-68.5 194t-31 188z" />
<glyph unicode="w" horiz-adv-x="1617" d="M31 758v307h409v-373q0 -80 19 -238t43 -208q35 71 68.5 208.5t33.5 278.5v291h410v-291q0 -139 33.5 -276t68.5 -211q25 50 43.5 206.5t18.5 239.5v373h409v-307q0 -92 -29.5 -204t-71.5 -206t-84.5 -174.5t-71.5 -127.5l-30 -46h-286q-139 178 -205 315 q-28 -59 -79 -138t-88 -128l-38 -49h-287q-12 18 -31 48.5t-68.5 122.5t-87 179.5t-68.5 201.5t-31 206z" />
<glyph unicode="x" d="M31 0v184q0 193 190 379q-170 221 -170 420v82h389v-86q0 -89 82 -262q82 164 82 262v86h389v-82q0 -200 -172 -424q193 -202 193 -395q0 -96 10 -164h-338q-11 0 -19.5 3t-15.5 10.5t-12 14.5t-8.5 21l-6 24t-5 28.5t-3.5 30t-3 34t-3 33.5t-3 22t-6 23.5t-6.5 21.5 t-9.5 24t-10 22t-12.5 24.5t-12.5 23t-14 25.5t-14 25q-8 -17 -26.5 -52.5t-28.5 -55.5t-18.5 -52t-8.5 -62v-188h-409z" />
<glyph unicode="y" d="M31 922v143h409v-270q0 -61 27 -162.5t55 -161.5q29 58 55.5 160t26.5 164v270h410v-143q0 -80 -29.5 -173t-72 -168.5t-84.5 -139t-72 -99.5l-29 -35v-307h-410v307q-12 13 -31 37t-68.5 96t-87 142t-68.5 165t-31 175z" />
<glyph unicode="z" horiz-adv-x="993" d="M20 0v141l400 678h-129l-98 -164h-152v410h922v-139l-408 -680h139l99 164h170v-410h-943z" />
<glyph unicode="{" horiz-adv-x="737" d="M20 471v123h21q15 0 33.5 7t40 23t35.5 51t14 83v348q0 180 83.5 254t284.5 74h185v-246q-87 0 -115.5 -44t-28.5 -161v-225q0 -143 -163 -226q163 -83 163 -225v-225q0 -117 28.5 -161t115.5 -44v-246h-185q-201 0 -284.5 74t-83.5 254v348q0 48 -14 83t-35.5 51t-40 23 t-33.5 7h-21z" />
<glyph unicode="|" horiz-adv-x="491" d="M41 -492v2048h410v-2048h-410z" />
<glyph unicode="}" horiz-adv-x="737" d="M20 -123q87 0 115.5 44t28.5 161v225q0 142 164 225q-164 83 -164 226v225q0 117 -28.5 161t-115.5 44v246h185q201 0 284.5 -74t83.5 -254v-348q0 -48 14 -83t35.5 -51t40 -23t33.5 -7h21v-123h-21q-15 0 -33.5 -7t-40 -23t-35.5 -51t-14 -83v-348q0 -180 -83.5 -254 t-284.5 -74h-185v246z" />
<glyph unicode="~" horiz-adv-x="901" d="M10 573l31 97q30 95 101 165t173 70q61 0 118 -17.5t96 -35.5t55 -18q18 0 30.5 14.5t22.5 52.5h254l-27 -98q-28 -100 -102.5 -169t-171.5 -69q-63 0 -121.5 18.5t-97.5 37t-54 18.5q-31 0 -49 -66h-258z" />
<glyph unicode="&#xa2;" horiz-adv-x="962" d="M31 328v409q0 114 73.5 170.5t243.5 69.5v108h287v-108q146 -17 221.5 -72.5t75.5 -146.5v-123h-369q0 47 -16 74.5t-45 27.5t-45.5 -28t-16.5 -74v-205q0 -46 16.5 -74t45.5 -28t45 27.5t16 74.5h369v-123q0 -91 -75.5 -146.5t-221.5 -72.5v-108h-287v108 q-170 13 -243.5 69.5t-73.5 170.5z" />
<glyph unicode="&#xa3;" horiz-adv-x="1064" d="M20 0v246q82 0 82 102v144h-82v163h82v185q0 135 106.5 190t364.5 55q235 0 333 -55t98 -190v-103h-369q0 103 -62 103q-61 0 -61 -103v-82h287v-163h-287v-21q0 -58 -29.5 -117t-85.5 -108h297l131 164h219v-410h-1024z" />
<glyph unicode="&#xa5;" d="M31 922v143h409v-270q0 -99 58 -263h49q57 161 57 263v270h410v-143q0 -165 -129 -390h78v-122h-156q-20 -28 -40 -53.5t-30 -37.5l-10 -12v-20h236v-123h-236v-164h-410v164h-235v123h235v20q-34 40 -79 103h-156v122h78q-129 225 -129 390z" />
<glyph unicode="&#xa8;" horiz-adv-x="819" d="M41 1239v236h287v-236h-287zM492 1239v236h286v-236h-286z" />
<glyph unicode="&#xa9;" horiz-adv-x="1863" d="M31 143v1188q0 91 89.5 144.5t284 77.5t527.5 24t527.5 -24t284 -77.5t89.5 -144.5v-1188q0 -91 -89.5 -144t-284 -77t-527.5 -24t-527.5 24t-284 77t-89.5 144zM358 246q0 -56 131 -79.5t443 -23.5t442.5 23.5t130.5 79.5v983q0 56 -130 79t-443 23t-443.5 -23 t-130.5 -79v-983zM481 512v451q0 135 106.5 190t364.5 55q210 0 320 -57.5t110 -167.5v-164h-368v51q0 93 -62 93q-61 0 -61 -93v-266q0 -92 61 -92q62 0 62 92v51h368v-163q0 -110 -110.5 -168t-319.5 -58q-258 0 -364.5 55.5t-106.5 190.5z" />
<glyph unicode="&#xab;" horiz-adv-x="931" d="M20 532l299 426l201 -143l-201 -283l201 -282l-201 -144zM412 532l299 426l200 -143l-200 -283l200 -282l-200 -144z" />
<glyph unicode="&#xad;" horiz-adv-x="737" d="M31 451l20 245h656l-21 -245h-655z" />
<glyph unicode="&#xae;" horiz-adv-x="1863" d="M31 143v1188q0 91 89.5 144.5t284 77.5t527.5 24t527.5 -24t284 -77.5t89.5 -144.5v-1188q0 -91 -89.5 -144t-284 -77t-527.5 -24t-527.5 24t-284 77t-89.5 144zM358 246q0 -56 131 -79.5t443 -23.5t442.5 23.5t130.5 79.5v983q0 56 -130 79t-443 23t-443.5 -23 t-130.5 -79v-983zM492 289v909h426q227 0 342.5 -47t115.5 -152v-73q0 -79 -47 -124.5t-151 -62.5q88 -24 151.5 -84t63.5 -127v-106q0 -67 8 -133h-340q-35 0 -46 46t-11 171v39q0 36 -15.5 59t-38.5 23h-69v-338h-389zM881 827h55q32 0 50 21t18 61v17q0 73 -68 73h-55 v-172z" />
<glyph unicode="&#xb4;" horiz-adv-x="491" d="M20 1266l293 311l158 -182l-334 -242z" />
<glyph unicode="&#xb8;" horiz-adv-x="921" d="M233 -246l48 307h137l-37 -196q20 17 62 27t73 10q73 0 112.5 -26t39.5 -73v-196q0 -54 -51.5 -76.5t-174.5 -22.5q-114 0 -161.5 20.5t-47.5 70.5v75h148v-26q0 -41 61 -41q62 0 62 41v90q0 41 -64 41q-31 0 -59 -25h-148z" />
<glyph unicode="&#xbb;" horiz-adv-x="931" d="M20 250l201 282l-201 283l201 143l299 -426l-299 -426zM412 250l200 282l-200 283l200 143l299 -426l-299 -426z" />
<glyph unicode="&#x2c6;" horiz-adv-x="696" d="M20 1413l328 72l328 -72l-41 -205l-287 125l-287 -125z" />
<glyph unicode="&#x2da;" horiz-adv-x="573" d="M61 1372q0 95 67 160t159 65q95 0 160 -66.5t65 -158.5q0 -95 -66.5 -160t-158.5 -65q-95 0 -160.5 66.5t-65.5 158.5zM184 1372q0 -45 31 -73.5t72 -28.5q45 0 73.5 31t28.5 71q0 45 -31 74t-71 29q-45 0 -74 -31.5t-29 -71.5z" />
<glyph unicode="&#x2dc;" horiz-adv-x="757" d="M12 1280q23 82 86 143.5t150 61.5q45 0 97.5 -24t97.5 -48t71 -24q50 0 72 86l159 -41q-23 -87 -87.5 -147t-147.5 -60q-49 0 -102.5 24t-97 48t-68.5 24q-49 0 -70 -84z" />
<glyph unicode="&#x400;" horiz-adv-x="839" d="M41 0v1475h778v-287h-368v-307h245v-287h-245v-307h368v-287h-778zM184 1628l41 236l410 -123l-41 -154z" />
<glyph unicode="&#x401;" horiz-adv-x="839" d="M41 0v1475h778v-287h-368v-307h245v-287h-245v-307h368v-287h-778zM61 1608v235h287v-235h-287zM512 1608v235h287v-235h-287z" />
<glyph unicode="&#x402;" horiz-adv-x="1320" d="M20 1188v287h984v-287h-287v-189q115 45 266 45q169 0 238 -55t69 -190v-533q0 -110 -65.5 -188t-159.5 -78h-236q52 108 52 164v471q0 51 -22.5 77.5t-63.5 26.5q-16 0 -40 -6t-38 -16v-717h-410v1065v123h-287z" />
<glyph unicode="&#x403;" horiz-adv-x="839" d="M41 0v1475h778v-287h-368v-1188h-410zM246 1741l409 123l41 -236l-409 -41z" />
<glyph unicode="&#x404;" horiz-adv-x="1003" d="M31 225v1024q0 135 111 190.5t380 55.5q247 0 349 -51t102 -174v-287h-369v164q0 102 -82 102t-82 -102v-287h256v-246h-256v-286q0 -50 21 -76.5t61 -26.5t61 26.5t21 76.5v164h369v-287q0 -123 -102 -174t-349 -51q-269 0 -380 55t-111 190z" />
<glyph unicode="&#x405;" horiz-adv-x="1024" d="M31 184v246h327v-123q0 -40 34.5 -61t99.5 -21q64 0 98.5 26.5t34.5 76.5q0 45 -31.5 93t-82.5 91t-112 88t-122 91t-112 92.5t-82.5 101t-31.5 108.5v256q0 135 104.5 190.5t356.5 55.5t356.5 -46.5t104.5 -158.5v-225h-328v123q0 61 -123 61t-123 -82q0 -45 33 -92.5 t85 -89.5t115.5 -86t127 -89t115.5 -90.5t85 -99.5t33 -108v-287q0 -135 -108.5 -190t-372.5 -55q-235 0 -358 52t-123 152z" />
<glyph unicode="&#x406;" horiz-adv-x="491" d="M41 0v1475h410v-1475h-410z" />
<glyph unicode="&#x407;" horiz-adv-x="491" d="M-123 1608v235h287v-235h-287zM41 0v1475h410v-1475h-410zM328 1608v235h286v-235h-286z" />
<glyph unicode="&#x408;" horiz-adv-x="634" d="M31 -2v244q31 -17 61 -17q50 0 76.5 26.5t26.5 76.5v860h-164v287h573v-1209q0 -139 -110.5 -212.5t-319.5 -73.5q-78 0 -143 18z" />
<glyph unicode="&#x409;" horiz-adv-x="1628" d="M20 0v410h41q50 0 76.5 26.5t26.5 75.5v963h860v-615h82q269 0 380 -55.5t111 -190.5v-368q0 -135 -111 -190.5t-380 -55.5h-492v1188h-163v-819q0 -180 -71 -274.5t-206 -94.5h-154zM1024 246h82q82 0 82 102v164q0 102 -82 102h-82v-368z" />
<glyph unicode="&#x40a;" horiz-adv-x="1628" d="M41 0v1475h410v-615h163v615h410v-615h82q269 0 380 -55.5t111 -190.5v-368q0 -135 -111 -190.5t-380 -55.5h-492v614h-163v-614h-410zM1024 246h82q82 0 82 102v164q0 102 -82 102h-82v-368z" />
<glyph unicode="&#x40b;" horiz-adv-x="1320" d="M20 1188v287h984v-287h-287v-273q129 129 287 129q127 0 206.5 -68.5t79.5 -176.5v-635q0 -96 10 -164h-348q-43 0 -57 57t-14 209v369q0 46 -18.5 75t-47.5 29q-44 0 -98 -57v-682h-410v1188h-287z" />
<glyph unicode="&#x40c;" horiz-adv-x="1054" d="M41 0v1475h410v-533h77q32 0 59 28.5t27 71.5v433h390v-431q0 -68 -55 -129t-140 -98q91 -37 153 -104t62 -140v-409q0 -96 10 -164h-348q-43 0 -57.5 57.5t-14.5 208.5v287q0 46 -18 74t-47 28h-98v-655h-410zM317 1741l410 123l41 -236l-410 -41z" />
<glyph unicode="&#x40d;" horiz-adv-x="1024" d="M41 0v1475h287v-648l385 648h270v-1311q0 -96 10 -164h-297v645l-385 -645h-270zM266 1628l41 236l410 -123l-41 -154z" />
<glyph unicode="&#x40e;" d="M31 1024v451h409v-496q0 -57 33.5 -152t69.5 -172q26 52 43.5 152.5t17.5 171.5v496h410v-451q0 -80 -29.5 -173t-72 -168t-84.5 -138.5t-72 -98.5l-29 -36q0 -1 -17.5 -18.5t-38.5 -40.5t-49.5 -56t-54 -69.5t-47.5 -74.5t-35.5 -77.5t-13.5 -73.5h-410q0 252 263 453 q-2 3 -38.5 49t-54 69.5t-53.5 75t-56.5 91t-44.5 90.5t-35 100.5t-11 95.5zM195 1659l20 205q21 -12 55 -29t115.5 -45.5t136.5 -28.5t131.5 25.5t126.5 51.5l49 26l21 -205q-18 -8 -50 -20t-118.5 -32t-159.5 -20t-154.5 18t-127.5 36z" />
<glyph unicode="&#x40f;" horiz-adv-x="1064" d="M41 0v1475h410v-1188h163v1188h410v-1475h-410v-246h-163v246h-410z" />
<glyph unicode="&#x410;" d="M31 0v369q0 164 61.5 440.5t122.5 470.5l61 195h492q10 -30 26.5 -82t59 -199t75 -278.5t59 -287.5t26.5 -259v-205q0 -96 10 -164h-348q-43 0 -57.5 57.5t-14.5 208.5v21h-164v-287h-409zM440 573h164v86q0 83 -28.5 322t-53.5 289q-24 -50 -53 -290t-29 -321v-86z" />
<glyph unicode="&#x411;" horiz-adv-x="1054" d="M41 0v1475h860v-287h-450v-328h81q269 0 380.5 -55.5t111.5 -190.5v-368q0 -135 -111.5 -190.5t-380.5 -55.5h-81h-410zM451 246h81q82 0 82 102v164q0 102 -82 102h-81v-368z" />
<glyph unicode="&#x412;" horiz-adv-x="1054" d="M41 0v1475h512q220 0 335.5 -63t115.5 -183v-205q0 -91 -40.5 -149.5t-132.5 -86.5q101 -29 147 -86.5t46 -148.5v-307q0 -135 -106.5 -190.5t-364.5 -55.5h-512zM451 246h102q29 0 45 27.5t16 74.5v184q0 47 -16 75t-45 28h-102v-389zM451 922h102q29 0 45 27.5t16 74.5 v102q0 47 -16 75t-45 28h-102v-307z" />
<glyph unicode="&#x413;" horiz-adv-x="839" d="M41 0v1475h778v-287h-368v-1188h-410z" />
<glyph unicode="&#x414;" horiz-adv-x="1269" d="M20 -164v451h41q89 0 137 47.5t48 136.5v1004h860v-1188h143v-451h-174l-98 164h-684l-98 -164h-175zM528 287h168v901h-164v-819q0 -28 -4 -82z" />
<glyph unicode="&#x415;" horiz-adv-x="839" d="M41 0v1475h778v-287h-368v-307h245v-287h-245v-307h368v-287h-778z" />
<glyph unicode="&#x416;" horiz-adv-x="1617" d="M20 0q11 75 11 164v409q0 73 62 140t153 104q-85 37 -140 98t-55 129v431h389v-433q0 -43 27 -71.5t59 -28.5h78v533h410v-533h78q32 0 59 28.5t27 71.5v433h389v-431q0 -68 -55 -129t-140 -98q91 -37 153 -104t62 -140v-409q0 -96 10 -164h-348q-43 0 -57 57t-14 209 v287q0 46 -18.5 74t-47.5 28h-98v-655h-410v655h-98q-29 0 -47.5 -28t-18.5 -74v-287q0 -152 -14 -209t-57 -57h-349z" />
<glyph unicode="&#x417;" d="M31 205v327h409v-204q0 -50 21 -76.5t61 -26.5t61 26.5t21 76.5v245q0 47 -16 75t-45 28h-287v205h287q29 0 45 27.5t16 74.5v164q0 102 -82 102t-82 -102v-123h-389v246q0 123 106.5 174t364.5 51t364.5 -55.5t106.5 -190.5v-225q0 -91 -40 -149.5t-132 -86.5 q101 -29 147 -86.5t46 -148.5v-328q0 -135 -111.5 -190t-380.5 -55q-268 0 -379.5 51t-111.5 174z" />
<glyph unicode="&#x418;" horiz-adv-x="1024" d="M41 0v1475h287v-648l385 648h270v-1311q0 -96 10 -164h-297v645l-385 -645h-270z" />
<glyph unicode="&#x419;" horiz-adv-x="1024" d="M41 0v1475h287v-648l385 648h270v-1311q0 -96 10 -164h-297v645l-385 -645h-270zM184 1659l21 205q21 -12 55 -29t115.5 -45.5t136.5 -28.5t131.5 25.5t126.5 51.5l49 26l21 -205q-18 -8 -50 -20t-118.5 -32t-159.5 -20t-155 18t-127 36z" />
<glyph unicode="&#x41a;" horiz-adv-x="1054" d="M41 0v1475h410v-533h77q32 0 59 28.5t27 71.5v433h390v-431q0 -68 -55 -129t-140 -98q91 -37 153 -104t62 -140v-409q0 -96 10 -164h-348q-43 0 -57.5 57.5t-14.5 208.5v287q0 46 -18 74t-47 28h-98v-655h-410z" />
<glyph unicode="&#x41b;" horiz-adv-x="1064" d="M20 0v410h41q50 0 76.5 26.5t26.5 75.5v963h860v-1311q0 -96 10 -164h-348q-43 0 -57.5 57.5t-14.5 208.5v922h-163v-819q0 -180 -71 -274.5t-206 -94.5h-154z" />
<glyph unicode="&#x41c;" horiz-adv-x="1638" d="M41 0v1475h369q116 0 220.5 -52t188.5 -147q84 94 189 146.5t221 52.5h368v-1311q0 -89 11 -164h-348q-43 0 -57.5 57.5t-14.5 208.5v963q-80 0 -122 -84t-42 -244v-901h-410v901q0 160 -42 244t-121 84v-1229h-410z" />
<glyph unicode="&#x41d;" horiz-adv-x="1064" d="M41 0v1475h410v-594h163v594h410v-1311q0 -96 10 -164h-348q-43 0 -57.5 57.5t-14.5 208.5v328h-163v-594h-410z" />
<glyph unicode="&#x41e;" d="M31 225v1024q0 135 111 190.5t380 55.5t380.5 -55.5t111.5 -190.5v-1024q0 -135 -111.5 -190t-380.5 -55t-380 55t-111 190zM440 328q0 -50 21 -76.5t61 -26.5t61 26.5t21 76.5v819q0 102 -82 102t-82 -102v-819z" />
<glyph unicode="&#x41f;" horiz-adv-x="1064" d="M41 0v1475h983v-1311q0 -96 10 -164h-348q-43 0 -57.5 57.5t-14.5 208.5v922h-163v-1188h-410z" />
<glyph unicode="&#x420;" horiz-adv-x="1054" d="M41 0v1475h491q269 0 380.5 -55.5t111.5 -190.5v-533q0 -135 -111.5 -190t-380.5 -55h-81v-451h-410zM451 696h81q40 0 61 26.5t21 76.5v327q0 50 -21 76.5t-61 26.5h-81v-533z" />
<glyph unicode="&#x421;" horiz-adv-x="1003" d="M31 225v1024q0 135 111 190.5t380 55.5q247 0 349 -51t102 -174v-328h-369v205q0 102 -82 102t-82 -102v-819q0 -50 21 -76.5t61 -26.5t61 26.5t21 76.5v204h369v-327q0 -123 -102 -174t-349 -51q-269 0 -380 55t-111 190z" />
<glyph unicode="&#x422;" horiz-adv-x="1024" d="M20 1188v287h984v-287h-287v-1188h-410v1188h-287z" />
<glyph unicode="&#x423;" d="M31 1024v451h409v-496q0 -57 33.5 -152t69.5 -172q26 52 43.5 152.5t17.5 171.5v496h410v-451q0 -80 -29.5 -173t-72 -168t-84.5 -138.5t-72 -98.5l-29 -36q0 -1 -17.5 -18.5t-38.5 -40.5t-49.5 -56t-54 -69.5t-47.5 -74.5t-35.5 -77.5t-13.5 -73.5h-410q0 252 263 453 q-2 3 -38.5 49t-54 69.5t-53.5 75t-56.5 91t-44.5 90.5t-35 100.5t-11 95.5z" />
<glyph unicode="&#x424;" horiz-adv-x="1617" d="M31 389v696q0 118 132.5 175t440.5 69v146h410v-146q308 -12 440.5 -69t132.5 -175v-696q0 -118 -132 -174t-441 -68v-147h-410v147q-309 12 -441 68t-132 174zM440 492q0 -39 39 -61.5t125 -31.5v678q-86 -9 -125 -32t-39 -62v-491zM1014 399q86 9 125 31.5t39 61.5v491 q0 39 -39 62t-125 32v-678z" />
<glyph unicode="&#x425;" d="M31 0v328q0 206 215 430q-195 241 -195 450v267h389v-291q0 -110 82 -283q32 64 57 144t25 139v291h389v-267q0 -211 -221 -450q242 -224 242 -430q0 -260 10 -328h-348q-14 0 -24.5 13.5t-17 37.5t-11.5 52t-7.5 63.5t-4.5 65t-3.5 63t-3.5 51.5q-5 58 -28.5 146.5 t-53.5 142.5q-30 -63 -56 -153t-26 -150v-332h-409z" />
<glyph unicode="&#x426;" horiz-adv-x="1187" d="M41 0v1475h410v-1188h163v1188h410v-1188h143v-451h-174l-98 164h-854z" />
<glyph unicode="&#x427;" horiz-adv-x="1054" d="M31 778v697h409v-594q0 -50 21 -76.5t61 -26.5h82v697h410v-1475h-410v532h-82q-269 0 -380 55.5t-111 190.5z" />
<glyph unicode="&#x428;" horiz-adv-x="1638" d="M41 0v1475h410v-1188h163v1188h410v-1188h164v1188h409v-1475h-1556z" />
<glyph unicode="&#x429;" horiz-adv-x="1761" d="M41 0v1475h410v-1188h163v1188h410v-1188h164v1188h409v-1188h144v-451h-174l-99 164h-1427z" />
<glyph unicode="&#x42a;" horiz-adv-x="1228" d="M20 1188v287h605v-615h82q269 0 380 -55.5t111 -190.5v-368q0 -135 -111 -190.5t-380 -55.5h-492v1188h-195zM625 246h82q81 0 81 102v164q0 102 -81 102h-82v-368z" />
<glyph unicode="&#x42b;" horiz-adv-x="1556" d="M41 0v1475h410v-615h81q269 0 380.5 -55.5t111.5 -190.5v-368q0 -135 -111.5 -190.5t-380.5 -55.5h-491zM451 246h81q82 0 82 102v164q0 102 -82 102h-81v-368zM1106 0v1475h410v-1475h-410z" />
<glyph unicode="&#x42c;" horiz-adv-x="1054" d="M41 0v1475h410v-615h81q269 0 380.5 -55.5t111.5 -190.5v-368q0 -135 -111.5 -190.5t-380.5 -55.5h-491zM451 246h81q82 0 82 102v164q0 102 -82 102h-81v-368z" />
<glyph unicode="&#x42d;" horiz-adv-x="1003" d="M31 205v287h368v-164q0 -50 21 -76.5t61 -26.5t61 26.5t21 76.5v286h-256v246h256v287q0 102 -82 102t-82 -102v-164h-368v287q0 123 101.5 174t348.5 51q269 0 380.5 -55.5t111.5 -190.5v-1024q0 -135 -111.5 -190t-380.5 -55q-247 0 -348.5 51t-101.5 174z" />
<glyph unicode="&#x42e;" horiz-adv-x="1576" d="M41 0v1475h410v-594h112v368q0 135 111.5 190.5t380.5 55.5t380 -55.5t111 -190.5v-1024q0 -135 -111 -190t-380 -55t-380.5 55t-111.5 190v369h-112v-594h-410zM973 328q0 -50 21 -76.5t61 -26.5t61 26.5t21 76.5v819q0 102 -82 102t-82 -102v-819z" />
<glyph unicode="&#x42f;" horiz-adv-x="1054" d="M20 0v451h52q70 0 102 20t49 59q2 4 13.5 33t19 40.5t24 33.5t41.5 37.5t60 27.5q-178 15 -254 71t-76 169v287q0 135 111.5 190.5t380.5 55.5h471v-1475h-410v645q-65 -12 -94 -43.5t-29 -89.5v-143q0 -180 -70.5 -274.5t-205.5 -94.5h-185zM440 922q0 -50 21 -76.5 t61 -26.5h82v410h-82q-40 0 -61 -26.5t-21 -76.5v-204z" />
<glyph unicode="&#x430;" d="M31 0v205q0 103 25 229.5t61 233.5t72.5 199t61.5 145l25 53h492q10 -20 26.5 -55.5t59 -140t75 -204t59 -228.5t26.5 -232v-41q0 -96 10 -164h-358q-37 0 -49.5 38.5t-12.5 104.5v82h-164v-225h-409zM440 430h164v66q0 65 -27.5 187t-54.5 177q-27 -56 -54.5 -178 t-27.5 -186v-66z" />
<glyph unicode="&#x431;" horiz-adv-x="1054" d="M41 0v1065h819v-246h-409v-143h81q269 0 380.5 -55.5t111.5 -190.5v-184q0 -135 -111.5 -190.5t-380.5 -55.5h-81h-410zM451 246h81q82 0 82 92t-82 92h-81v-184z" />
<glyph unicode="&#x432;" horiz-adv-x="1054" d="M41 0v1065h512q247 0 349 -58t102 -198v-41q0 -90 -39.5 -143t-133.5 -82q102 -29 147.5 -82.5t45.5 -143.5v-61q0 -140 -106.5 -198t-364.5 -58h-512zM451 246h122q62 0 62 92t-62 92h-122v-184zM451 635h102q61 0 61 92t-61 92h-102v-184z" />
<glyph unicode="&#x433;" horiz-adv-x="839" d="M41 0v1065h778v-287h-368v-778h-410z" />
<glyph unicode="&#x434;" horiz-adv-x="1269" d="M20 -164v451h41q89 0 137 47.5t48 136.5v594h860v-778h143v-451h-174l-98 164h-684l-98 -164h-175zM528 287h168v491h-164v-409q0 -28 -4 -82z" />
<glyph unicode="&#x435;" horiz-adv-x="839" d="M41 0v1065h778v-287h-368v-123h245v-245h-245v-123h368v-287h-778z" />
<glyph unicode="&#x436;" horiz-adv-x="1576" d="M20 0q11 75 11 164v164q0 72 62 139t153 104q-85 37 -140 98.5t-55 129.5v266h389v-309q0 -43 27 -72t59 -29h58v410h409v-410h58q32 0 59 29t27 72v309h389v-266q0 -68 -55 -129.5t-140 -98.5q91 -37 153 -104t62 -139v-164q0 -96 10 -164h-348q-43 0 -57 57t-14 209v82 q0 46 -18.5 74.5t-47.5 28.5h-78v-451h-409v451h-78q-29 0 -47.5 -28.5t-18.5 -74.5v-82q0 -152 -14 -209t-57 -57h-349z" />
<glyph unicode="&#x437;" d="M31 205v123h409q0 -50 21 -76.5t61 -26.5t61 26.5t21 76.5q0 102 -61 102h-287v205h287q61 0 61 102q0 50 -21 76.5t-61 26.5t-61 -26.5t-21 -76.5h-389v123q0 123 106.5 174t364.5 51t364.5 -55t106.5 -190v-62q0 -91 -40 -149t-132 -86q101 -29 147 -87t46 -149v-82 q0 -135 -111.5 -190t-380.5 -55q-268 0 -379.5 51t-111.5 174z" />
<glyph unicode="&#x438;" horiz-adv-x="1024" d="M41 0v1065h287v-442l282 442h373v-901q0 -96 10 -164h-297v440l-282 -440h-373z" />
<glyph unicode="&#x439;" horiz-adv-x="1024" d="M41 0v1065h287v-442l282 442h373v-901q0 -96 10 -164h-297v440l-282 -440h-373zM164 1290l20 205q21 -11 55 -28t116 -45.5t137 -28.5t131.5 25.5t126.5 51.5l49 25l20 -205q-18 -8 -49.5 -20t-118 -31.5t-159.5 -19.5t-155 17.5t-127 35.5z" />
<glyph unicode="&#x43a;" horiz-adv-x="1054" d="M41 0v1065h410v-410h77q32 0 59 29t27 72v309h390v-266q0 -68 -55 -129.5t-140 -98.5q91 -37 153 -104t62 -139v-164q0 -96 10 -164h-348q-43 0 -57.5 57.5t-14.5 208.5v82q0 46 -18 74.5t-47 28.5h-98v-451h-410z" />
<glyph unicode="&#x43b;" horiz-adv-x="1064" d="M20 0v410h41q50 0 76.5 26.5t26.5 75.5v553h860v-901q0 -96 10 -164h-348q-43 0 -57.5 57.5t-14.5 208.5v512h-163v-409q0 -180 -71 -274.5t-206 -94.5h-154z" />
<glyph unicode="&#x43c;" horiz-adv-x="1638" d="M41 0v1065h369q116 0 220.5 -52t188.5 -147q84 94 189 146.5t221 52.5h368v-901q0 -89 11 -164h-348q-43 0 -57.5 57.5t-14.5 208.5v553q-80 0 -122 -84t-42 -243v-492h-410v492q0 160 -41.5 243.5t-121.5 83.5v-819h-410z" />
<glyph unicode="&#x43d;" horiz-adv-x="1064" d="M41 0v1065h410v-410h163v410h410v-901q0 -96 10 -164h-348q-43 0 -57.5 57.5t-14.5 208.5v144h-163v-410h-410z" />
<glyph unicode="&#x43e;" d="M31 225v615q0 135 111 190t380 55t380.5 -55t111.5 -190v-615q0 -135 -111.5 -190t-380.5 -55t-380 55t-111 190zM440 328q0 -50 21 -76.5t61 -26.5t61 26.5t21 76.5v409q0 50 -21 76.5t-61 26.5t-61 -26.5t-21 -76.5v-409z" />
<glyph unicode="&#x43f;" horiz-adv-x="1064" d="M41 0v1065h983v-901q0 -96 10 -164h-348q-43 0 -57.5 57.5t-14.5 208.5v512h-163v-778h-410z" />
<glyph unicode="&#x440;" horiz-adv-x="1054" d="M41 0v1065h491q269 0 380.5 -55.5t111.5 -190.5v-327q0 -135 -111.5 -190.5t-380.5 -55.5h-81v-246h-410zM451 492h81q82 0 82 102v123q0 102 -82 102h-81v-327z" />
<glyph unicode="&#x441;" horiz-adv-x="1003" d="M31 225v615q0 135 111 190t380 55q247 0 349 -51t102 -174v-246h-369v123q0 50 -21 76.5t-61 26.5t-61 -26.5t-21 -76.5v-409q0 -50 21 -76.5t61 -26.5t61 26.5t21 76.5v123h369v-246q0 -123 -102 -174t-349 -51q-269 0 -380 55t-111 190z" />
<glyph unicode="&#x442;" horiz-adv-x="1001" d="M18 778v287h963v-287h-276v-778h-410v778h-277z" />
<glyph unicode="&#x443;" d="M31 922v143h409v-188q0 -61 27 -162.5t55 -161.5q29 58 55.5 160t26.5 164v188h410v-143q0 -80 -31.5 -171t-77 -163t-90.5 -132.5t-77 -93.5l-31 -34l-11 -12q-10 -12 -22 -26l-30 -35t-35.5 -42.5t-36 -46t-34 -48t-28.5 -45.5t-20 -41t-7 -32h-409q0 196 229 371 l-33 41q-32 41 -42.5 56t-43 60t-47 72t-39.5 73.5t-36.5 82.5t-21 80.5t-9.5 85.5z" />
<glyph unicode="&#x444;" horiz-adv-x="1536" d="M31 369v327q0 80 48.5 129t164.5 77t319 36v127h410v-127q203 -8 319 -36t164.5 -77t48.5 -129v-327q0 -80 -48.5 -129t-164.5 -77t-319 -36v-127h-410v127q-203 8 -319 36t-164.5 77t-48.5 129zM440 471q0 -39 27 -60.5t96 -31.5v307q-69 -10 -96 -31.5t-27 -60.5v-123z M973 379q69 10 96 31.5t27 60.5v123q0 39 -27 60.5t-96 31.5v-307z" />
<glyph unicode="&#x445;" d="M31 0v184q0 193 190 379q-170 221 -170 420v82h389v-86q0 -89 82 -262q82 164 82 262v86h389v-82q0 -200 -172 -424q193 -202 193 -395q0 -96 10 -164h-338q-11 0 -19.5 3t-15.5 10.5t-12 14.5t-8.5 21l-6 24t-5 28.5t-3.5 30t-3 34t-3 33.5t-3 22t-6 23.5t-6.5 21.5 t-9.5 24t-10 22t-12.5 24.5t-12.5 23t-14 25.5t-14 25q-8 -17 -26.5 -52.5t-28.5 -55.5t-18.5 -52t-8.5 -62v-188h-409z" />
<glyph unicode="&#x446;" horiz-adv-x="1187" d="M41 0v1065h410v-778h163v778h410v-778h143v-451h-174l-98 164h-854z" />
<glyph unicode="&#x447;" horiz-adv-x="1054" d="M31 614v451h409v-348q0 -50 21 -76.5t61 -26.5h82v451h410v-1065h-410v369h-82q-269 0 -380 55t-111 190z" />
<glyph unicode="&#x448;" horiz-adv-x="1638" d="M41 0v1065h410v-778h163v778h410v-778h164v778h409v-1065h-1556z" />
<glyph unicode="&#x449;" horiz-adv-x="1761" d="M41 0v1065h410v-778h163v778h410v-778h164v778h409v-778h144v-451h-174l-99 164h-1427z" />
<glyph unicode="&#x44a;" horiz-adv-x="1218" d="M20 778v287h594v-328h82q269 0 380.5 -55t111.5 -190v-246q0 -135 -111.5 -190.5t-380.5 -55.5h-491v778h-185zM614 246h82q82 0 82 102v41q0 50 -21 76.5t-61 26.5h-82v-246z" />
<glyph unicode="&#x44b;" horiz-adv-x="1566" d="M41 0v1065h410v-328h81q269 0 380.5 -55t111.5 -190v-246q0 -135 -111.5 -190.5t-380.5 -55.5h-491zM451 246h81q82 0 82 102v41q0 50 -21 76.5t-61 26.5h-81v-246zM1116 0v1065h410v-1065h-410z" />
<glyph unicode="&#x44c;" horiz-adv-x="1054" d="M41 0v1065h410v-328h81q269 0 380.5 -55t111.5 -190v-246q0 -135 -111.5 -190.5t-380.5 -55.5h-491zM451 246h81q82 0 82 102v41q0 50 -21 76.5t-61 26.5h-81v-246z" />
<glyph unicode="&#x44d;" horiz-adv-x="1003" d="M31 205v123h368q0 -50 21 -76.5t61 -26.5t61 26.5t21 76.5v102h-338v205h338v102q0 50 -21 76.5t-61 26.5t-61 -26.5t-21 -76.5h-368v123q0 123 101.5 174t348.5 51q269 0 380.5 -55t111.5 -190v-615q0 -135 -111.5 -190t-380.5 -55q-247 0 -348.5 51t-101.5 174z" />
<glyph unicode="&#x44e;" horiz-adv-x="1587" d="M41 0v1065h410v-410h122v185q0 135 111.5 190t380.5 55t380 -55t111 -190v-615q0 -135 -111 -190t-380 -55t-380.5 55t-111.5 190v185h-122v-410h-410zM983 328q0 -47 24.5 -75t57.5 -28t57.5 28t24.5 75v409q0 47 -24.5 75t-57.5 28t-57.5 -28t-24.5 -75v-409z" />
<glyph unicode="&#x44f;" d="M20 0v410h113q112 0 180 24t68 64q-178 15 -254 70.5t-76 168.5v82q0 135 111.5 190.5t380.5 55.5h471v-1065h-410v440q-60 0 -91.5 -24t-31.5 -68v-61q0 -140 -70.5 -213.5t-205.5 -73.5h-185zM440 717q0 -50 21 -76.5t61 -26.5h82v205h-82q-82 0 -82 -102z" />
<glyph unicode="&#x450;" horiz-adv-x="839" d="M41 0v1065h778v-287h-368v-123h245v-245h-245v-123h368v-287h-778zM195 1260l41 235l409 -123l-41 -153z" />
<glyph unicode="&#x451;" horiz-adv-x="839" d="M41 0v1065h778v-287h-368v-123h245v-245h-245v-123h368v-287h-778zM72 1239v236h286v-236h-286zM522 1239v236h287v-236h-287z" />
<glyph unicode="&#x452;" horiz-adv-x="1259" d="M20 819v246h963v-246h-287v-252q65 65 128 97t139 32q125 0 195.5 -67.5t70.5 -177.5v-185q0 -110 -65.5 -188t-159.5 -78h-236q51 106 51 164v143q0 84 -45 84q-21 0 -37 -13t-41 -44v-334h-409v819h-267z" />
<glyph unicode="&#x453;" horiz-adv-x="839" d="M41 0v1065h778v-287h-368v-778h-410zM246 1372l409 123l41 -235l-409 -41z" />
<glyph unicode="&#x454;" horiz-adv-x="1003" d="M31 225v615q0 135 111 190t380 55q247 0 349 -51t102 -174v-123h-369q0 50 -21 76.5t-61 26.5t-61 -26.5t-21 -76.5v-102h338v-205h-338v-102q0 -50 21 -76.5t61 -26.5t61 26.5t21 76.5h369v-123q0 -123 -102 -174t-349 -51q-269 0 -380 55t-111 190z" />
<glyph unicode="&#x455;" horiz-adv-x="1003" d="M31 184v164h327v-41q0 -31 37 -56.5t86 -25.5q67 0 95 19t28 63q0 33 -41 55t-102.5 32t-133 26t-133 36t-102.5 63.5t-41 105.5v215q0 92 41.5 144t139 76.5t270.5 24.5q129 0 229.5 -23t160.5 -69.5t60 -111.5v-144h-327v41q0 29 -33 45.5t-80 16.5q-62 0 -87.5 -14 t-25.5 -48q0 -29 31.5 -48t82.5 -29.5t112 -19.5t122 -23t112 -34.5t82.5 -59.5t31.5 -93v-246q0 -135 -106.5 -190t-364.5 -55q-130 0 -235 22.5t-170.5 70t-65.5 111.5z" />
<glyph unicode="&#x456;" horiz-adv-x="491" d="M41 0v1065h410v-1065h-410z" />
<glyph unicode="&#x457;" horiz-adv-x="491" d="M-82 1239v236h246v-236h-246zM41 0v1065h410v-1065h-410zM328 1239v236h245v-236h-245z" />
<glyph unicode="&#x458;" horiz-adv-x="634" d="M31 -2v244q31 -17 61 -17q50 0 76.5 26.5t26.5 76.5v491h-164v246h573v-799q0 -139 -110.5 -212.5t-319.5 -73.5q-78 0 -143 18z" />
<glyph unicode="&#x459;" horiz-adv-x="1628" d="M20 0v410h41q50 0 76.5 26.5t26.5 75.5v553h860v-328h82q269 0 380 -55t111 -190v-246q0 -135 -111 -190.5t-380 -55.5h-492v778h-163v-409q0 -180 -71 -274.5t-206 -94.5h-154zM1024 246h82q82 0 82 102v41q0 50 -21 76.5t-61 26.5h-82v-246z" />
<glyph unicode="&#x45a;" horiz-adv-x="1628" d="M41 0v1065h410v-410h163v410h410v-328h82q269 0 380 -55t111 -190v-246q0 -135 -111 -190.5t-380 -55.5h-492v410h-163v-410h-410zM1024 246h82q82 0 82 102v41q0 50 -21 76.5t-61 26.5h-82v-246z" />
<glyph unicode="&#x45b;" horiz-adv-x="1259" d="M20 819v246h963v-246h-287v-252q65 65 128 97t139 32q125 0 195.5 -67.5t70.5 -177.5v-287q0 -96 10 -164h-348q-43 0 -57.5 57.5t-14.5 208.5v41q0 84 -45 84q-21 0 -37 -13t-41 -44v-334h-409v819h-267z" />
<glyph unicode="&#x45c;" horiz-adv-x="1054" d="M41 0v1065h410v-410h77q32 0 59 29t27 72v309h390v-266q0 -68 -55 -129.5t-140 -98.5q91 -37 153 -104t62 -139v-164q0 -96 10 -164h-348q-43 0 -57.5 57.5t-14.5 208.5v82q0 46 -18 74.5t-47 28.5h-98v-451h-410zM317 1372l410 123l41 -235l-410 -41z" />
<glyph unicode="&#x45d;" horiz-adv-x="1024" d="M41 0v1065h287v-442l282 442h373v-901q0 -96 10 -164h-297v440l-282 -440h-373zM246 1260l41 235l409 -123l-41 -153z" />
<glyph unicode="&#x45e;" d="M31 922v143h409v-188q0 -61 27 -162.5t55 -161.5q29 58 55.5 160t26.5 164v188h410v-143q0 -80 -31.5 -171t-77 -163t-90.5 -132.5t-77 -93.5l-31 -34l-11 -12q-10 -12 -22 -26l-30 -35t-35.5 -42.5t-36 -46t-34 -48t-28.5 -45.5t-20 -41t-7 -32h-409q0 196 229 371 l-33 41q-32 41 -42.5 56t-43 60t-47 72t-39.5 73.5t-36.5 82.5t-21 80.5t-9.5 85.5zM195 1290l20 205q21 -11 55 -28t115.5 -45.5t136.5 -28.5t131.5 25.5t126.5 51.5l49 25l21 -205q-18 -8 -50 -20t-118.5 -31.5t-159.5 -19.5t-154.5 17.5t-127.5 35.5z" />
<glyph unicode="&#x45f;" horiz-adv-x="1064" d="M41 0v1065h410v-778h163v778h410v-1065h-410v-246h-163v246h-410z" />
<glyph unicode="&#x462;" horiz-adv-x="1320" d="M20 983v328h287v164h410v-164h368v-328h-92l-98 164h-178v-287h82q269 0 380 -55.5t111 -190.5v-368q0 -135 -111 -190.5t-380 -55.5h-492v1147h-96l-98 -164h-93zM717 246h82q82 0 82 102v164q0 102 -82 102h-82v-368z" />
<glyph unicode="&#x463;" horiz-adv-x="1320" d="M20 758v307h287v143h410v-143h327v-307h-92l-98 143h-137v-246h82q269 0 380 -55t111 -190v-164q0 -135 -111 -190.5t-380 -55.5h-492v901h-96l-98 -143h-93zM717 246h82q82 0 82 82t-82 82h-82v-164z" />
<glyph unicode="&#x464;" horiz-adv-x="1576" d="M41 0v1475h410v-615h153v389q0 135 111.5 190.5t380.5 55.5q247 0 348.5 -51t101.5 -174v-287h-368v164q0 102 -82 102t-82 -102v-287h256v-246h-256v-286q0 -50 21 -76.5t61 -26.5t61 26.5t21 76.5v164h368v-287q0 -123 -101.5 -174t-348.5 -51q-269 0 -380.5 55 t-111.5 190v389h-153v-614h-410z" />
<glyph unicode="&#x465;" horiz-adv-x="1546" d="M41 0v1065h410v-410h122v185q0 135 111.5 190t380.5 55q247 0 349 -51t102 -174v-123h-369q0 50 -21 76.5t-61 26.5t-61 -26.5t-21 -76.5v-102h338v-205h-338v-102q0 -50 21 -76.5t61 -26.5t61 26.5t21 76.5h369v-123q0 -123 -102 -174t-349 -51q-269 0 -380.5 55 t-111.5 190v185h-122v-410h-410z" />
<glyph unicode="&#x472;" d="M31 225v1024q0 135 111 190.5t380 55.5t380.5 -55.5t111.5 -190.5v-1024q0 -135 -111.5 -190t-380.5 -55t-380 55t-111 190zM440 328q0 -50 21 -76.5t61 -26.5t61 26.5t21 76.5v307q-92 20 -112 20q-10 0 -23 -5t-21 -10l-8 -5v-307zM440 778q32 41 52 41q18 0 46 -25.5 t47 -51.5l19 -25v430q0 102 -82 102t-82 -102v-369z" />
<glyph unicode="&#x473;" horiz-adv-x="1003" d="M31 225v615q0 135 106.5 190t364.5 55t364.5 -55t106.5 -190v-615q0 -135 -106.5 -190t-364.5 -55t-364.5 55t-106.5 190zM420 328q0 -103 82 -103q40 0 61 26.5t21 76.5v123q-93 20 -113 20q-10 0 -23 -5t-20 -10l-8 -5v-123zM420 594q31 41 51 41q18 0 46.5 -25.5 t47.5 -51.5l19 -26v205q0 50 -21 76.5t-61 26.5t-61 -26.5t-21 -76.5v-143z" />
<glyph unicode="&#x490;" horiz-adv-x="839" d="M41 0v1475h528l99 163h151v-450h-368v-1188h-410z" />
<glyph unicode="&#x491;" horiz-adv-x="839" d="M41 0v1065h528l99 164h151v-451h-368v-778h-410z" />
<glyph unicode="&#x4c0;" horiz-adv-x="491" d="M41 0v1475h410v-1475h-410z" />
<glyph unicode="&#x4c1;" horiz-adv-x="1617" d="M20 0q11 75 11 164v409q0 73 62 140t153 104q-85 37 -140 98t-55 129v431h389v-433q0 -43 27 -71.5t59 -28.5h78v533h410v-533h78q32 0 59 28.5t27 71.5v433h389v-431q0 -68 -55 -129t-140 -98q91 -37 153 -104t62 -140v-409q0 -96 10 -164h-348q-43 0 -57 57t-14 209 v287q0 46 -18.5 74t-47.5 28h-98v-655h-410v655h-98q-29 0 -47.5 -28t-18.5 -74v-287q0 -152 -14 -209t-57 -57h-349zM481 1659l21 205q21 -12 55 -29t115.5 -45.5t136.5 -28.5t131.5 25.5t125.5 51.5l50 26l21 -205q-18 -8 -50 -20t-118.5 -32t-159.5 -20t-155 18t-128 36z " />
<glyph unicode="&#x4c2;" horiz-adv-x="1576" d="M20 0q11 75 11 164v164q0 72 62 139t153 104q-85 37 -140 98.5t-55 129.5v266h389v-309q0 -43 27 -72t59 -29h58v410h409v-410h58q32 0 59 29t27 72v309h389v-266q0 -68 -55 -129.5t-140 -98.5q91 -37 153 -104t62 -139v-164q0 -96 10 -164h-348q-43 0 -57 57t-14 209v82 q0 46 -18.5 74.5t-47.5 28.5h-78v-451h-409v451h-78q-29 0 -47.5 -28.5t-18.5 -74.5v-82q0 -152 -14 -209t-57 -57h-349zM461 1290l20 205q21 -11 55 -28t115.5 -45.5t136.5 -28.5t132 25.5t126 51.5l50 25l20 -205q-18 -8 -50 -20t-118.5 -31.5t-159.5 -19.5t-154.5 17.5 t-127.5 35.5z" />
<glyph unicode="&#x4d0;" d="M31 0v369q0 164 61.5 440.5t122.5 470.5l61 195h492q10 -30 26.5 -82t59 -199t75 -278.5t59 -287.5t26.5 -259v-205q0 -96 10 -164h-348q-43 0 -57.5 57.5t-14.5 208.5v21h-164v-287h-409zM195 1690l20 204q21 -11 55 -28t115.5 -45.5t136.5 -28.5t131.5 25.5t126.5 50.5 l49 26l21 -204q-18 -8 -50 -20t-118.5 -32t-159.5 -20t-154.5 18t-127.5 36zM440 573h164v86q0 83 -28.5 322t-53.5 289q-24 -50 -53 -290t-29 -321v-86z" />
<glyph unicode="&#x4d1;" d="M31 0v205q0 103 25 229.5t61 233.5t72.5 199t61.5 145l25 53h492q10 -20 26.5 -55.5t59 -140t75 -204t59 -228.5t26.5 -232v-41q0 -96 10 -164h-358q-37 0 -49.5 38.5t-12.5 104.5v82h-164v-225h-409zM195 1290l20 205q21 -11 55 -28t115.5 -45.5t136.5 -28.5t131.5 25.5 t126.5 51.5l49 25l21 -205q-18 -8 -50 -20t-118.5 -31.5t-159.5 -19.5t-154.5 17.5t-127.5 35.5zM440 430h164v66q0 65 -27.5 187t-54.5 177q-27 -56 -54.5 -178t-27.5 -186v-66z" />
<glyph unicode="&#x4d2;" d="M31 0v369q0 164 61.5 440.5t122.5 470.5l61 195h492q10 -30 26.5 -82t59 -199t75 -278.5t59 -287.5t26.5 -259v-205q0 -96 10 -164h-348q-43 0 -57.5 57.5t-14.5 208.5v21h-164v-287h-409zM154 1618v235h286v-235h-286zM440 573h164v86q0 83 -28.5 322t-53.5 289 q-24 -50 -53 -290t-29 -321v-86zM604 1618v235h287v-235h-287z" />
<glyph unicode="&#x4d3;" d="M31 0v205q0 103 25 229.5t61 233.5t72.5 199t61.5 145l25 53h492q10 -20 26.5 -55.5t59 -140t75 -204t59 -228.5t26.5 -232v-41q0 -96 10 -164h-358q-37 0 -49.5 38.5t-12.5 104.5v82h-164v-225h-409zM154 1239v236h286v-236h-286zM440 430h164v66q0 65 -27.5 187 t-54.5 177q-27 -56 -54.5 -178t-27.5 -186v-66zM604 1239v236h287v-236h-287z" />
<glyph unicode="&#x4d4;" horiz-adv-x="1402" d="M31 0v369q0 164 61.5 440.5t122.5 470.5l61 195h1106v-287h-368v-307h246v-287h-246v-307h368v-287h-778v287h-164v-287h-409zM440 573h164v615h-98q-20 -54 -43 -254t-23 -275v-86z" />
<glyph unicode="&#x4d5;" horiz-adv-x="1361" d="M31 0v205q0 103 27.5 229.5t66.5 233.5t78 199t67 145l27 53h1044v-287h-327v-123h205v-245h-205v-123h327v-287h-737v225h-164v-225h-409zM440 471h164v389h-61q-31 -65 -67 -185t-36 -179v-25z" />
<glyph unicode="&#x4d6;" horiz-adv-x="839" d="M41 0v1475h778v-287h-368v-307h245v-287h-245v-307h368v-287h-778zM102 1659l21 205q21 -12 55 -29t115.5 -45.5t136.5 -28.5t131.5 25.5t126.5 51.5l49 26l21 -205q-18 -8 -50 -20t-118.5 -32t-159.5 -20t-155 18t-127 36z" />
<glyph unicode="&#x4d7;" horiz-adv-x="839" d="M41 0v1065h778v-287h-368v-123h245v-245h-245v-123h368v-287h-778zM113 1290l20 205q21 -11 55 -28t115.5 -45.5t136.5 -28.5t132 25.5t126 51.5l50 25l20 -205q-18 -8 -50 -20t-118.5 -31.5t-159.5 -19.5t-154.5 17.5t-127.5 35.5z" />
<glyph unicode="&#x4d8;" d="M31 225v553h573v369q0 102 -82 102t-82 -102v-205h-409v307q0 134 115 190t376 56t376.5 -56.5t115.5 -189.5v-1024q0 -133 -115.5 -189t-376.5 -56t-376 56t-115 189zM399 328q0 -50 26.5 -76.5t76.5 -26.5q49 0 75.5 26.5t26.5 76.5v245h-205v-245z" />
<glyph unicode="&#x4d9;" d="M31 225v389h573v123q0 44 -25.5 73.5t-56.5 29.5t-56.5 -29.5t-25.5 -73.5v-41h-409v144q0 133 115 189t376 56t376.5 -56t115.5 -189v-615q0 -133 -115.5 -189t-376.5 -56t-376 56t-115 189zM399 328q0 -47 30.5 -75t72.5 -28t72 28t30 75v82h-205v-82z" />
<glyph unicode="&#x4da;" d="M31 225v553h573v369q0 102 -82 102t-82 -102v-205h-409v307q0 134 115 190t376 56t376.5 -56.5t115.5 -189.5v-1024q0 -133 -115.5 -189t-376.5 -56t-376 56t-115 189zM154 1608v235h286v-235h-286zM399 328q0 -50 26.5 -76.5t76.5 -26.5q49 0 75.5 26.5t26.5 76.5v245 h-205v-245zM604 1608v235h287v-235h-287z" />
<glyph unicode="&#x4db;" d="M31 225v389h573v123q0 44 -25.5 73.5t-56.5 29.5t-56.5 -29.5t-25.5 -73.5v-41h-409v144q0 133 115 189t376 56t376.5 -56t115.5 -189v-615q0 -133 -115.5 -189t-376.5 -56t-376 56t-115 189zM154 1239v236h286v-236h-286zM399 328q0 -47 30.5 -75t72.5 -28t72 28t30 75 v82h-205v-82zM604 1239v236h287v-236h-287z" />
<glyph unicode="&#x4dc;" horiz-adv-x="1617" d="M20 0q11 75 11 164v409q0 73 62 140t153 104q-85 37 -140 98t-55 129v431h389v-433q0 -43 27 -71.5t59 -28.5h78v533h410v-533h78q32 0 59 28.5t27 71.5v433h389v-431q0 -68 -55 -129t-140 -98q91 -37 153 -104t62 -140v-409q0 -96 10 -164h-348q-43 0 -57 57t-14 209 v287q0 46 -18.5 74t-47.5 28h-98v-655h-410v655h-98q-29 0 -47.5 -28t-18.5 -74v-287q0 -152 -14 -209t-57 -57h-349zM440 1608v235h287v-235h-287zM891 1608v235h287v-235h-287z" />
<glyph unicode="&#x4dd;" horiz-adv-x="1576" d="M20 0q11 75 11 164v164q0 72 62 139t153 104q-85 37 -140 98.5t-55 129.5v266h389v-309q0 -43 27 -72t59 -29h58v410h409v-410h58q32 0 59 29t27 72v309h389v-266q0 -68 -55 -129.5t-140 -98.5q91 -37 153 -104t62 -139v-164q0 -96 10 -164h-348q-43 0 -57 57t-14 209v82 q0 46 -18.5 74.5t-47.5 28.5h-78v-451h-409v451h-78q-29 0 -47.5 -28.5t-18.5 -74.5v-82q0 -152 -14 -209t-57 -57h-349zM420 1239v236h287v-236h-287zM870 1239v236h287v-236h-287z" />
<glyph unicode="&#x4de;" d="M31 205v327h409v-204q0 -50 21 -76.5t61 -26.5t61 26.5t21 76.5v245q0 47 -16 75t-45 28h-287v205h287q29 0 45 27.5t16 74.5v164q0 102 -82 102t-82 -102v-123h-389v246q0 123 106.5 174t364.5 51t364.5 -55.5t106.5 -190.5v-225q0 -91 -40 -149.5t-132 -86.5 q101 -29 147 -86.5t46 -148.5v-328q0 -135 -111.5 -190t-380.5 -55q-268 0 -379.5 51t-111.5 174zM154 1608v235h286v-235h-286zM604 1608v235h287v-235h-287z" />
<glyph unicode="&#x4df;" d="M31 205v123h409q0 -50 21 -76.5t61 -26.5t61 26.5t21 76.5q0 102 -61 102h-287v205h287q61 0 61 102q0 50 -21 76.5t-61 26.5t-61 -26.5t-21 -76.5h-389v123q0 123 106.5 174t364.5 51t364.5 -55t106.5 -190v-62q0 -91 -40 -149t-132 -86q101 -29 147 -87t46 -149v-82 q0 -135 -111.5 -190t-380.5 -55q-268 0 -379.5 51t-111.5 174zM174 1239v236h287v-236h-287zM625 1239v236h286v-236h-286z" />
<glyph unicode="&#x4e2;" horiz-adv-x="1024" d="M41 0v1475h287v-648l385 648h270v-1311q0 -96 10 -164h-297v645l-385 -645h-270zM164 1659v164h696v-164h-696z" />
<glyph unicode="&#x4e3;" horiz-adv-x="1024" d="M41 0v1065h287v-442l282 442h373v-901q0 -96 10 -164h-297v440l-282 -440h-373zM143 1290v164h697v-164h-697z" />
<glyph unicode="&#x4e4;" horiz-adv-x="1024" d="M41 0v1475h287v-648l385 648h270v-1311q0 -96 10 -164h-297v645l-385 -645h-270zM143 1608v235h287v-235h-287zM594 1608v235h287v-235h-287z" />
<glyph unicode="&#x4e5;" horiz-adv-x="1024" d="M41 0v1065h287v-442l282 442h373v-901q0 -96 10 -164h-297v440l-282 -440h-373zM123 1239v236h287v-236h-287zM573 1239v236h287v-236h-287z" />
<glyph unicode="&#x4e6;" d="M31 225v1024q0 135 111 190.5t380 55.5t380.5 -55.5t111.5 -190.5v-1024q0 -135 -111.5 -190t-380.5 -55t-380 55t-111 190zM154 1618v235h286v-235h-286zM440 328q0 -50 21 -76.5t61 -26.5t61 26.5t21 76.5v819q0 102 -82 102t-82 -102v-819zM604 1618v235h287v-235 h-287z" />
<glyph unicode="&#x4e7;" d="M31 225v615q0 135 111 190t380 55t380.5 -55t111.5 -190v-615q0 -135 -111.5 -190t-380.5 -55t-380 55t-111 190zM154 1239v236h286v-236h-286zM440 328q0 -50 21 -76.5t61 -26.5t61 26.5t21 76.5v409q0 50 -21 76.5t-61 26.5t-61 -26.5t-21 -76.5v-409zM604 1239v236 h287v-236h-287z" />
<glyph unicode="&#x4e8;" d="M31 225v1024q0 135 111 190.5t380 55.5t380.5 -55.5t111.5 -190.5v-1024q0 -135 -111.5 -190t-380.5 -55t-380 55t-111 190zM440 328q0 -50 21 -76.5t61 -26.5t61 26.5t21 76.5v266h-164v-266zM440 881h164v266q0 102 -82 102t-82 -102v-266z" />
<glyph unicode="&#x4e9;" d="M31 225v615q0 133 115 189t376 56t376.5 -56t115.5 -189v-615q0 -133 -115.5 -189t-376.5 -56t-376 56t-115 189zM420 328q0 -50 26.5 -76.5t75.5 -26.5q50 0 76.5 26.5t26.5 76.5v82h-205v-82zM420 655h205v82q0 49 -26.5 76t-76.5 27q-49 0 -75.5 -26.5t-26.5 -76.5 v-82z" />
<glyph unicode="&#x4ea;" d="M31 225v1024q0 135 111 190.5t380 55.5t380.5 -55.5t111.5 -190.5v-1024q0 -135 -111.5 -190t-380.5 -55t-380 55t-111 190zM154 1608v235h286v-235h-286zM440 328q0 -50 21 -76.5t61 -26.5t61 26.5t21 76.5v266h-164v-266zM440 881h164v266q0 102 -82 102t-82 -102v-266 zM604 1608v235h287v-235h-287z" />
<glyph unicode="&#x4eb;" d="M31 225v615q0 133 115 189t376 56t376.5 -56t115.5 -189v-615q0 -133 -115.5 -189t-376.5 -56t-376 56t-115 189zM154 1239v236h286v-236h-286zM420 328q0 -50 26.5 -76.5t75.5 -26.5q50 0 76.5 26.5t26.5 76.5v82h-205v-82zM420 655h205v82q0 49 -26.5 76t-76.5 27 q-49 0 -75.5 -26.5t-26.5 -76.5v-82zM604 1239v236h287v-236h-287z" />
<glyph unicode="&#x4ec;" horiz-adv-x="1003" d="M31 205v287h368v-164q0 -50 21 -76.5t61 -26.5t61 26.5t21 76.5v286h-256v246h256v287q0 102 -82 102t-82 -102v-164h-368v287q0 123 101.5 174t348.5 51q269 0 380.5 -55.5t111.5 -190.5v-1024q0 -135 -111.5 -190t-380.5 -55q-247 0 -348.5 51t-101.5 174zM154 1608 v235h286v-235h-286zM604 1608v235h287v-235h-287z" />
<glyph unicode="&#x4ed;" horiz-adv-x="1003" d="M31 205v123h368q0 -50 21 -76.5t61 -26.5t61 26.5t21 76.5v102h-338v205h338v102q0 50 -21 76.5t-61 26.5t-61 -26.5t-21 -76.5h-368v123q0 123 101.5 174t348.5 51q269 0 380.5 -55t111.5 -190v-615q0 -135 -111.5 -190t-380.5 -55q-247 0 -348.5 51t-101.5 174z M113 1239v236h286v-236h-286zM563 1239v236h287v-236h-287z" />
<glyph unicode="&#x4ee;" d="M31 1024v451h409v-496q0 -57 33.5 -152t69.5 -172q26 52 43.5 152.5t17.5 171.5v496h410v-451q0 -80 -29.5 -173t-72 -168t-84.5 -138.5t-72 -98.5l-29 -36q0 -1 -17.5 -18.5t-38.5 -40.5t-49.5 -56t-54 -69.5t-47.5 -74.5t-35.5 -77.5t-13.5 -73.5h-410q0 252 263 453 q-2 3 -38.5 49t-54 69.5t-53.5 75t-56.5 91t-44.5 90.5t-35 100.5t-11 95.5zM174 1659v164h696v-164h-696z" />
<glyph unicode="&#x4ef;" d="M31 922v143h409v-188q0 -61 27 -162.5t55 -161.5q29 58 55.5 160t26.5 164v188h410v-143q0 -80 -31.5 -171t-77 -163t-90.5 -132.5t-77 -93.5l-31 -34l-11 -12q-10 -12 -22 -26l-30 -35t-35.5 -42.5t-36 -46t-34 -48t-28.5 -45.5t-20 -41t-7 -32h-409q0 196 229 371 l-33 41q-32 41 -42.5 56t-43 60t-47 72t-39.5 73.5t-36.5 82.5t-21 80.5t-9.5 85.5zM174 1290v164h696v-164h-696z" />
<glyph unicode="&#x4f0;" d="M31 1024v451h409v-496q0 -57 33.5 -152t69.5 -172q26 52 43.5 152.5t17.5 171.5v496h410v-451q0 -80 -29.5 -173t-72 -168t-84.5 -138.5t-72 -98.5l-29 -36q0 -1 -17.5 -18.5t-38.5 -40.5t-49.5 -56t-54 -69.5t-47.5 -74.5t-35.5 -77.5t-13.5 -73.5h-410q0 252 263 453 q-2 3 -38.5 49t-54 69.5t-53.5 75t-56.5 91t-44.5 90.5t-35 100.5t-11 95.5zM154 1608v235h286v-235h-286zM604 1608v235h287v-235h-287z" />
<glyph unicode="&#x4f1;" d="M31 922v143h409v-188q0 -61 27 -162.5t55 -161.5q29 58 55.5 160t26.5 164v188h410v-143q0 -80 -31.5 -171t-77 -163t-90.5 -132.5t-77 -93.5l-31 -34l-11 -12q-10 -12 -22 -26l-30 -35t-35.5 -42.5t-36 -46t-34 -48t-28.5 -45.5t-20 -41t-7 -32h-409q0 196 229 371 l-33 41q-32 41 -42.5 56t-43 60t-47 72t-39.5 73.5t-36.5 82.5t-21 80.5t-9.5 85.5zM154 1239v236h286v-236h-286zM604 1239v236h287v-236h-287z" />
<glyph unicode="&#x4f2;" d="M31 1024v451h409v-496q0 -57 33.5 -152t69.5 -172q26 52 43.5 152.5t17.5 171.5v496h410v-451q0 -80 -29.5 -173t-72 -168t-84.5 -138.5t-72 -98.5l-29 -36q0 -1 -17.5 -18.5t-38.5 -40.5t-49.5 -56t-54 -69.5t-47.5 -74.5t-35.5 -77.5t-13.5 -73.5h-410q0 252 263 453 q-2 3 -38.5 49t-54 69.5t-53.5 75t-56.5 91t-44.5 90.5t-35 100.5t-11 95.5zM113 1731l327 133l41 -226l-327 -51zM563 1731l328 133l41 -226l-328 -51z" />
<glyph unicode="&#x4f3;" d="M31 922v143h409v-188q0 -61 27 -162.5t55 -161.5q29 58 55.5 160t26.5 164v188h410v-143q0 -80 -31.5 -171t-77 -163t-90.5 -132.5t-77 -93.5l-31 -34l-11 -12q-10 -12 -22 -26l-30 -35t-35.5 -42.5t-36 -46t-34 -48t-28.5 -45.5t-20 -41t-7 -32h-409q0 196 229 371 l-33 41q-32 41 -42.5 56t-43 60t-47 72t-39.5 73.5t-36.5 82.5t-21 80.5t-9.5 85.5zM113 1362l327 133l41 -225l-327 -51zM563 1362l328 133l41 -225l-328 -51z" />
<glyph unicode="&#x4f4;" horiz-adv-x="1054" d="M31 778v697h409v-594q0 -50 21 -76.5t61 -26.5h82v697h410v-1475h-410v532h-82q-269 0 -380 55.5t-111 190.5zM164 1608v235h287v-235h-287zM614 1608v235h287v-235h-287z" />
<glyph unicode="&#x4f5;" horiz-adv-x="1054" d="M31 614v451h409v-348q0 -50 21 -76.5t61 -26.5h82v451h410v-1065h-410v369h-82q-269 0 -380 55t-111 190zM164 1239v236h287v-236h-287zM614 1239v236h287v-236h-287z" />
<glyph unicode="&#x4f8;" horiz-adv-x="1556" d="M41 0v1475h410v-615h81q269 0 380.5 -55.5t111.5 -190.5v-368q0 -135 -111.5 -190.5t-380.5 -55.5h-491zM420 1608v235h287v-235h-287zM451 246h81q82 0 82 102v164q0 102 -82 102h-81v-368zM870 1608v235h287v-235h-287zM1106 0v1475h410v-1475h-410z" />
<glyph unicode="&#x4f9;" horiz-adv-x="1566" d="M41 0v1065h410v-328h81q269 0 380.5 -55t111.5 -190v-246q0 -135 -111.5 -190.5t-380.5 -55.5h-491zM440 1239v236h287v-236h-287zM451 246h81q82 0 82 102v41q0 50 -21 76.5t-61 26.5h-81v-246zM891 1239v236h287v-236h-287zM1116 0v1065h410v-1065h-410z" />
<glyph unicode="&#x2000;" horiz-adv-x="947" />
<glyph unicode="&#x2001;" horiz-adv-x="1894" />
<glyph unicode="&#x2002;" horiz-adv-x="947" />
<glyph unicode="&#x2003;" horiz-adv-x="1894" />
<glyph unicode="&#x2004;" horiz-adv-x="631" />
<glyph unicode="&#x2005;" horiz-adv-x="473" />
<glyph unicode="&#x2006;" horiz-adv-x="315" />
<glyph unicode="&#x2007;" horiz-adv-x="315" />
<glyph unicode="&#x2008;" horiz-adv-x="236" />
<glyph unicode="&#x2009;" horiz-adv-x="378" />
<glyph unicode="&#x200a;" horiz-adv-x="105" />
<glyph unicode="&#x2010;" horiz-adv-x="737" d="M31 451l20 245h656l-21 -245h-655z" />
<glyph unicode="&#x2011;" horiz-adv-x="737" d="M31 451l20 245h656l-21 -245h-655z" />
<glyph unicode="&#x2012;" horiz-adv-x="737" d="M31 451l20 245h656l-21 -245h-655z" />
<glyph unicode="&#x2013;" horiz-adv-x="1146" d="M41 594v287h1065v-287h-1065z" />
<glyph unicode="&#x2014;" horiz-adv-x="1966" d="M41 594v287h1884v-287h-1884z" />
<glyph unicode="&#x2018;" horiz-adv-x="368" d="M51 1075v277q0 167 144 311l86 -86q-86 -86 -86 -225h112l10 -11v-266l-10 -10h-246z" />
<glyph unicode="&#x2019;" horiz-adv-x="368" d="M51 1321v266l10 10h246l10 -10v-276q0 -169 -143 -312l-86 86q86 86 86 226h-113z" />
<glyph unicode="&#x201a;" horiz-adv-x="368" d="M51 10v266l10 11h246l10 -11v-276q0 -168 -143 -311l-86 86q86 86 86 225h-113z" />
<glyph unicode="&#x201c;" horiz-adv-x="737" d="M51 1075v277q0 167 144 311l86 -86q-86 -86 -86 -225h112l10 -11v-266l-10 -10h-246zM420 1075v277q0 168 143 311l86 -86q-86 -86 -86 -225h113l10 -11v-266l-10 -10h-246z" />
<glyph unicode="&#x201d;" horiz-adv-x="737" d="M51 1321v266l10 10h246l10 -10v-276q0 -169 -143 -312l-86 86q86 86 86 226h-113zM420 1321v266l10 10h246l10 -10v-276q0 -169 -143 -312l-86 86q86 86 86 226h-113z" />
<glyph unicode="&#x201e;" horiz-adv-x="737" d="M51 10v266l10 11h246l10 -11v-276q0 -168 -143 -311l-86 86q86 86 86 225h-113zM420 10v266l10 11h246l10 -11v-276q0 -168 -143 -311l-86 86q86 86 86 225h-113z" />
<glyph unicode="&#x2026;" horiz-adv-x="1126" d="M51 10v266l10 11h267l10 -11v-266l-10 -10h-267zM420 10v266l10 11h266l11 -11v-266l-11 -10h-266zM788 10v266l11 11h266l10 -11v-266l-10 -10h-266z" />
<glyph unicode="&#x202f;" horiz-adv-x="378" />
<glyph unicode="&#x2039;" horiz-adv-x="540" d="M20 532l299 426l201 -143l-201 -283l201 -282l-201 -144z" />
<glyph unicode="&#x203a;" horiz-adv-x="540" d="M20 250l201 282l-201 283l201 143l299 -426l-299 -426z" />
<glyph unicode="&#x205f;" horiz-adv-x="473" />
<glyph unicode="&#x20ac;" horiz-adv-x="1064" d="M20 410l5 82h67v81h-61l4 82h57v185q0 135 111.5 190t380.5 55q247 0 348.5 -51t101.5 -174v-123h-368q0 50 -21 76.5t-61 26.5t-61 -26.5t-21 -76.5v-82h332l-5 -82h-327v-81h321l-4 -82h-317v-82q0 -50 21 -76.5t61 -26.5t61 26.5t21 76.5h368v-123q0 -123 -101.5 -174 t-348.5 -51q-269 0 -380.5 55t-111.5 190v185h-72z" />
<glyph unicode="&#x2122;" horiz-adv-x="2488" d="M20 1106v246h902v-246h-246v-696h-410v696h-246zM973 410v942h368q111 0 195.5 -49t173.5 -150q89 101 173.5 150t195.5 49h368v-779q0 -88 11 -163h-349q-43 0 -57 57t-14 209v430q-31 0 -53.5 -14.5t-36 -39t-21 -67.5t-10 -90.5t-2.5 -116.5v-368h-410v368 q0 69 -2.5 116.5t-10 90.5t-21 67.5t-36 39t-53.5 14.5v-696h-409z" />
<glyph unicode="&#xe000;" horiz-adv-x="1064" d="M0 0v1065h1065v-1065h-1065z" />
</font>
</defs>
</svg>
